<svg xmlns="http://www.w3.org/2000/svg" xmlns:xlink="http://www.w3.org/1999/xlink" width="30.348" height="30.348" viewBox="0 0 30.348 30.348">
  <defs>
    <clipPath id="clip-path">
      <path id="Caminho_31455" data-name="Caminho 31455" d="M146.6,48.568a15.174,15.174,0,1,0,15.174-15.174A15.174,15.174,0,0,0,146.6,48.568" transform="translate(-146.6 -33.394)" fill="none"/>
    </clipPath>
  </defs>
  <g id="Grupo_10729" data-name="Grupo 10729" clip-path="url(#clip-path)">
    <rect id="Retângulo_6632" data-name="Retângulo 6632" width="59.068" height="41.347" transform="translate(-24.143 -5.5)" fill="#00862f"/>
    <path id="Caminho_31417" data-name="Caminho 31417" d="M30.486,46.139,55,61.792,79.512,46.139,55,30.486Z" transform="translate(-49.609 -30.965)" fill="#ffce00"/>
    <path id="Caminho_31418" data-name="Caminho 31418" d="M126.9,62.766A10.345,10.345,0,1,0,137.239,73.1,10.339,10.339,0,0,0,126.9,62.766" transform="translate(-121.511 -57.929)" fill="#00244e"/>
    <path id="Caminho_31419" data-name="Caminho 31419" d="M145.063,145.052l.217-.158h-.268l-.083-.255-.083.255h-.268l.217.158-.083.255.217-.158.217.158Z" transform="translate(-144.911 -126.318)" fill="#fff"/>
    <path id="Caminho_31420" data-name="Caminho 31420" d="M196.825,103.867l.26-.189h-.322l-.1-.306-.1.306h-.322l.261.189-.1.306.26-.189.26.189Z" transform="translate(-188.067 -91.847)" fill="#fff"/>
    <path id="Caminho_31421" data-name="Caminho 31421" d="M221.333,145.369l.26-.189h-.322l-.1-.306-.1.306h-.322l.261.189-.1.306.26-.189.26.189Z" transform="translate(-208.539 -126.514)" fill="#fff"/>
    <path id="Caminho_31422" data-name="Caminho 31422" d="M230.7,146.7l.174-.126h-.215l-.066-.2-.066.2h-.215l.174.126-.066.2.174-.126.174.126Z" transform="translate(-216.528 -127.762)" fill="#fff"/>
    <path id="Caminho_31423" data-name="Caminho 31423" d="M224.225,151.285l.217-.158h-.268l-.083-.255-.083.255h-.268l.217.158-.083.255.217-.158.217.158Z" transform="translate(-211.036 -131.525)" fill="#fff"/>
    <path id="Caminho_31424" data-name="Caminho 31424" d="M209.11,164.436l.217-.158h-.268l-.083-.255-.083.255h-.268l.217.158-.083.255.217-.158.217.158Z" transform="translate(-198.41 -142.511)" fill="#fff"/>
    <path id="Caminho_31425" data-name="Caminho 31425" d="M209.354,171.121l.174-.126h-.215l-.066-.2-.066.2h-.215l.174.126-.066.2.174-.126.174.126Z" transform="translate(-198.695 -148.163)" fill="#fff"/>
    <path id="Caminho_31426" data-name="Caminho 31426" d="M215.673,159.849l.174-.126h-.215l-.066-.2-.066.2h-.215l.174.126-.066.2.174-.126.174.126Z" transform="translate(-203.973 -138.748)" fill="#fff"/>
    <path id="Caminho_31427" data-name="Caminho 31427" d="M220.382,156.324l.217-.158h-.268l-.083-.255-.083.255H219.9l.217.158-.083.255.217-.158.217.158Z" transform="translate(-207.826 -135.734)" fill="#fff"/>
    <path id="Caminho_31428" data-name="Caminho 31428" d="M209.183,158.654l.174-.126h-.215l-.066-.2-.066.2h-.215l.174.126-.066.2.174-.126.174.126Z" transform="translate(-198.552 -137.749)" fill="#fff"/>
    <path id="Caminho_31429" data-name="Caminho 31429" d="M153.774,126.265l.217-.158h-.268l-.083-.255-.083.255h-.268l.217.158-.083.255.217-.158.217.158Z" transform="translate(-152.187 -110.625)" fill="#fff"/>
    <path id="Caminho_31430" data-name="Caminho 31430" d="M195.093,120.909l.174-.126h-.215l-.066-.2-.066.2H194.7l.174.126-.066.2.174-.126.174.126Z" transform="translate(-186.782 -106.22)" fill="#fff"/>
    <path id="Caminho_31431" data-name="Caminho 31431" d="M177.355,151.518l.26-.189h-.322l-.1-.306-.1.306h-.322l.26.189-.1.306.26-.189.26.189Z" transform="translate(-171.804 -131.65)" fill="#fff"/>
    <path id="Caminho_31432" data-name="Caminho 31432" d="M184.943,139.415l.217-.158h-.268l-.083-.255-.083.255h-.268l.217.158-.083.255.217-.158.217.158Z" transform="translate(-178.223 -121.61)" fill="#fff"/>
    <path id="Caminho_31433" data-name="Caminho 31433" d="M177.684,133.779l.217-.158h-.268l-.083-.255-.083.255H177.2l.217.158-.083.255.217-.158.217.158Z" transform="translate(-172.16 -116.902)" fill="#fff"/>
    <path id="Caminho_31434" data-name="Caminho 31434" d="M171.694,139.781l.174-.126h-.215l-.066-.2-.066.2h-.215l.174.126-.066.2.174-.126.174.126Z" transform="translate(-167.237 -121.984)" fill="#fff"/>
    <path id="Caminho_31435" data-name="Caminho 31435" d="M175.23,144.554l.124-.09H175.2l-.047-.146-.047.146h-.153l.124.09-.047.146.124-.09.124.09Z" transform="translate(-170.283 -126.051)" fill="#fff"/>
    <path id="Caminho_31436" data-name="Caminho 31436" d="M196.471,165.974l.217-.158h-.268l-.083-.255-.083.255h-.268l.217.158-.083.255.217-.158.217.158Z" transform="translate(-187.853 -143.794)" fill="#fff"/>
    <path id="Caminho_31437" data-name="Caminho 31437" d="M202.181,160.788l.174-.126h-.215l-.066-.2-.066.2h-.215l.174.126-.066.2.174-.126.174.126Z" transform="translate(-192.703 -139.532)" fill="#fff"/>
    <path id="Caminho_31438" data-name="Caminho 31438" d="M191.848,159.251l.174-.126h-.215l-.066-.2-.066.2h-.215l.174.126-.066.2.174-.126.174.126Z" transform="translate(-184.072 -138.248)" fill="#fff"/>
    <path id="Caminho_31439" data-name="Caminho 31439" d="M152.164,156.641l.26-.189H152.1l-.1-.306-.1.306h-.322l.26.189-.1.306.26-.189.26.189Z" transform="translate(-150.761 -135.93)" fill="#fff"/>
    <path id="Caminho_31440" data-name="Caminho 31440" d="M178.673,173.9l.087-.063h-.107l-.033-.1-.033.1h-.107l.087.063-.033.1.087-.063.087.063Z" transform="translate(-173.229 -150.624)" fill="#fff"/>
    <path id="Caminho_31441" data-name="Caminho 31441" d="M219.893,145.918l.038.116h.122l-.1.072.038.116-.1-.072-.1.072.038-.116-.1-.072h.122Z" transform="translate(-207.689 -127.386)" fill="#fff"/>
    <path id="Caminho_31442" data-name="Caminho 31442" d="M122.667,98.632a25.33,25.33,0,0,0-3.549.249,10.264,10.264,0,0,0-.551,1.582,23.777,23.777,0,0,1,4.1-.355,23.539,23.539,0,0,1,15.776,6.038,10.282,10.282,0,0,0,.367-1.637,25,25,0,0,0-16.143-5.878" transform="translate(-123.183 -87.888)" fill="#fff"/>
    <path id="Caminho_31443" data-name="Caminho 31443" d="M193.1,109.443a.509.509,0,1,0,.25.633.465.465,0,0,0-.25-.633m-.288.772a.325.325,0,1,1,.352-.208.28.28,0,0,1-.352.208" transform="translate(-184.903 -96.894)" fill="#00862f"/>
    <path id="Caminho_31444" data-name="Caminho 31444" d="M233.513,132.448a.509.509,0,1,0,.044.679.465.465,0,0,0-.044-.679m-.51.647a.325.325,0,1,1,.4-.091.28.28,0,0,1-.4.091" transform="translate(-218.535 -116.054)" fill="#00862f"/>
    <path id="Caminho_31445" data-name="Caminho 31445" d="M220.245,123.254c.048-.078.131-.059.223,0s.158.148.1.237l.182.117a.324.324,0,0,0-.144-.451c-.107-.069-.391-.269-.559-.015-.195.3.431.547.322.717-.035.054-.116.056-.235-.021s-.173-.17-.119-.254l-.188-.121c-.135.208.069.416.207.5.161.1.4.2.542-.017.19-.295-.418-.555-.33-.7" transform="translate(-207.73 -108.258)" fill="#00862f"/>
    <path id="Caminho_31446" data-name="Caminho 31446" d="M226.7,127.6c.051-.075.133-.053.223.011s.15.155.088.242l.176.126a.324.324,0,0,0-.122-.457c-.1-.074-.378-.287-.558-.042-.209.286.4.567.287.732-.037.052-.119.05-.234-.032s-.164-.178-.107-.259l-.182-.13c-.145.2.05.418.182.513.156.111.392.219.542.009.2-.285-.391-.575-.3-.712" transform="translate(-213.111 -111.892)" fill="#00862f"/>
    <path id="Caminho_31447" data-name="Caminho 31447" d="M185.307,107.056a.305.305,0,0,0-.006-.58l-.563-.178-.292.926.192.061.108-.344.35.11a.434.434,0,0,1-.015.354l-.006.017.192.061,0-.013a.963.963,0,0,0,.056-.275.37.37,0,0,0-.022-.139m-.431-.525.357.113a.125.125,0,1,1-.075.238l-.357-.113Z" transform="translate(-178.213 -94.292)" fill="#00862f"/>
    <path id="Caminho_31448" data-name="Caminho 31448" d="M206.6,115.622a.305.305,0,0,0,.084-.574l-.528-.263-.433.869.18.09.161-.323.328.164a.435.435,0,0,1-.07.348l-.008.016.18.09.007-.013a.954.954,0,0,0,.1-.263.367.367,0,0,0,0-.141m-.344-.586.335.167a.125.125,0,1,1-.111.223l-.335-.167Z" transform="translate(-195.988 -101.381)" fill="#00862f"/>
    <path id="Caminho_31449" data-name="Caminho 31449" d="M146.069,100.969l.009-.249.527.018.006-.166-.527-.018.007-.194.638.022.006-.18-.832-.028-.033.97.873.03.006-.18Z" transform="translate(-145.989 -89.175)" fill="#00862f"/>
    <path id="Caminho_31450" data-name="Caminho 31450" d="M212.814,119.2l.123-.217.459.259.082-.145-.459-.259.1-.169.556.314.089-.157-.725-.409-.477.845.761.429.089-.157Z" transform="translate(-201.694 -104.417)" fill="#00862f"/>
    <path id="Caminho_31451" data-name="Caminho 31451" d="M165.91,103.233l.038-.222.469.079.025-.148-.469-.079.029-.173.568.1.027-.16-.74-.125-.146.863.777.131.027-.16Z" transform="translate(-162.563 -91.119)" fill="#00862f"/>
    <path id="Caminho_31452" data-name="Caminho 31452" d="M154.163,100.569l-.251.646-.136-.68-.242-.021-.084.967.166.014.057-.663.136.68.152.013.251-.646-.057.663.166.014.084-.967Z" transform="translate(-152.323 -89.461)" fill="#00862f"/>
    <path id="Caminho_31453" data-name="Caminho 31453" d="M177.164,105.217l.2.05.089-.349.376.1a.305.305,0,1,0,.151-.591l-.571-.146Zm.33-.474.363.093a.125.125,0,1,0,.062-.242l-.363-.093Z" transform="translate(-172.13 -92.603)" fill="#00862f" fill-rule="evenodd"/>
    <path id="Caminho_31454" data-name="Caminho 31454" d="M200.251,112.9l-.056.13.165.072a.239.239,0,0,1-.279.068.319.319,0,0,1,.249-.572.232.232,0,0,1,.141.21l.19.083a.43.43,0,0,0-.258-.462.5.5,0,0,0-.4.91.379.379,0,0,0,.314,0l-.047.108.13.056.2-.451Z" transform="translate(-190.993 -99.383)" fill="#00862f"/>
  </g>
</svg>
