<svg id="Grupo_10731" data-name="Grupo 10731" xmlns="http://www.w3.org/2000/svg" xmlns:xlink="http://www.w3.org/1999/xlink" width="30.013" height="30.013" viewBox="0 0 30.013 30.013">
  <defs>
    <clipPath id="clip-path">
      <path id="Caminho_31416" data-name="Caminho 31416" d="M10.668,16.828A15.006,15.006,0,1,0,25.674,1.822,15.006,15.006,0,0,0,10.668,16.828" transform="translate(-10.668 -1.822)" fill="none"/>
    </clipPath>
  </defs>
  <g id="Grupo_10727" data-name="Grupo 10727" transform="translate(0)" clip-path="url(#clip-path)">
    <rect id="Retângulo_6618" data-name="Retângulo 6618" width="58.416" height="2.365" transform="translate(-1.738 28.083)" fill="#bf002a"/>
    <rect id="Retângulo_6619" data-name="Retângulo 6619" width="58.416" height="2.365" transform="translate(-1.738 25.718)" fill="#fff"/>
    <rect id="Retângulo_6620" data-name="Retângulo 6620" width="58.416" height="2.365" transform="translate(-1.738 23.353)" fill="#bf002a"/>
    <rect id="Retângulo_6621" data-name="Retângulo 6621" width="58.416" height="2.365" transform="translate(-1.738 20.988)" fill="#fff"/>
    <rect id="Retângulo_6622" data-name="Retângulo 6622" width="58.416" height="2.365" transform="translate(-1.738 18.623)" fill="#bf002a"/>
    <rect id="Retângulo_6623" data-name="Retângulo 6623" width="58.416" height="2.365" transform="translate(-1.738 16.258)" fill="#fff"/>
    <rect id="Retângulo_6624" data-name="Retângulo 6624" width="35.049" height="2.365" transform="translate(21.629 13.893)" fill="#bf002a"/>
    <rect id="Retângulo_6625" data-name="Retângulo 6625" width="35.049" height="2.365" transform="translate(21.629 11.528)" fill="#fff"/>
    <rect id="Retângulo_6626" data-name="Retângulo 6626" width="35.049" height="2.365" transform="translate(21.629 9.163)" fill="#bf002a"/>
    <rect id="Retângulo_6627" data-name="Retângulo 6627" width="35.049" height="2.365" transform="translate(21.629 6.798)" fill="#fff"/>
    <rect id="Retângulo_6628" data-name="Retângulo 6628" width="35.049" height="2.365" transform="translate(21.629 4.433)" fill="#bf002a"/>
    <rect id="Retângulo_6629" data-name="Retângulo 6629" width="35.049" height="2.365" transform="translate(21.629 2.068)" fill="#fff"/>
    <rect id="Retângulo_6630" data-name="Retângulo 6630" width="35.049" height="2.365" transform="translate(21.629 -0.297)" fill="#bf002a"/>
    <rect id="Retângulo_6631" data-name="Retângulo 6631" width="23.366" height="16.555" transform="translate(-1.738 -0.297)" fill="#00244d"/>
    <path id="Caminho_31366" data-name="Caminho 31366" d="M7.471,6.553l.184-.567-.482-.35h.6l.184-.567.184.567h.6l-.482.35.184.567L7.953,6.2Z" transform="translate(-7.742 -4.541)" fill="#fff"/>
    <path id="Caminho_31367" data-name="Caminho 31367" d="M19.425,16.73l.184-.567-.482-.35h.6l.184-.567.184.567h.6l-.482.35.184.567-.482-.35Z" transform="translate(-17.75 -13.06)" fill="#fff"/>
    <path id="Caminho_31368" data-name="Caminho 31368" d="M31.379,6.553l.184-.567-.482-.35h.6l.184-.567.184.567h.6l-.482.35.184.567-.482-.35Z" transform="translate(-27.757 -4.541)" fill="#fff"/>
    <path id="Caminho_31369" data-name="Caminho 31369" d="M43.333,16.73l.184-.567-.482-.35h.6l.184-.567.184.567h.6l-.482.35.184.567-.482-.35Z" transform="translate(-37.764 -13.06)" fill="#fff"/>
    <path id="Caminho_31370" data-name="Caminho 31370" d="M55.288,6.553l.184-.567-.482-.35h.6l.184-.567.184.567h.6l-.482.35.184.567L55.77,6.2Z" transform="translate(-47.771 -4.541)" fill="#fff"/>
    <path id="Caminho_31371" data-name="Caminho 31371" d="M67.242,16.73l.184-.567-.482-.35h.6l.184-.567.184.567h.6l-.482.35.184.567-.482-.35Z" transform="translate(-57.778 -13.06)" fill="#fff"/>
    <path id="Caminho_31372" data-name="Caminho 31372" d="M79.2,6.553l.184-.567-.482-.35h.6l.184-.567.184.567h.6l-.482.35.184.567-.482-.35Z" transform="translate(-67.785 -4.541)" fill="#fff"/>
    <path id="Caminho_31373" data-name="Caminho 31373" d="M91.15,16.73l.184-.567-.482-.35h.6l.184-.567.184.567h.6l-.482.35.184.567-.482-.35Z" transform="translate(-77.793 -13.06)" fill="#fff"/>
    <path id="Caminho_31374" data-name="Caminho 31374" d="M103.1,6.553l.184-.567-.482-.35h.6l.184-.567.184.567h.6l-.482.35.184.567-.482-.35Z" transform="translate(-87.799 -4.541)" fill="#fff"/>
    <path id="Caminho_31375" data-name="Caminho 31375" d="M115.058,16.73l.184-.567-.482-.35h.6l.184-.567.184.567h.6l-.482.35.184.567-.482-.35Z" transform="translate(-97.806 -13.06)" fill="#fff"/>
    <path id="Caminho_31376" data-name="Caminho 31376" d="M127.012,6.553l.184-.567-.482-.35h.6l.184-.567.184.567h.6l-.482.35.184.567-.482-.35Z" transform="translate(-107.813 -4.541)" fill="#fff"/>
    <path id="Caminho_31377" data-name="Caminho 31377" d="M7.471,26.908l.184-.567-.482-.35h.6l.184-.567.184.567h.6l-.482.35.184.567-.482-.35Z" transform="translate(-7.742 -21.58)" fill="#fff"/>
    <path id="Caminho_31378" data-name="Caminho 31378" d="M19.425,37.085l.184-.567-.482-.35h.6l.184-.567.184.567h.6l-.482.35.184.567-.482-.35Z" transform="translate(-17.75 -30.099)" fill="#fff"/>
    <path id="Caminho_31379" data-name="Caminho 31379" d="M31.379,26.908l.184-.567-.482-.35h.6l.184-.567.184.567h.6l-.482.35.184.567-.482-.35Z" transform="translate(-27.757 -21.58)" fill="#fff"/>
    <path id="Caminho_31380" data-name="Caminho 31380" d="M43.333,37.085l.184-.567-.482-.35h.6l.184-.567.184.567h.6l-.482.35.184.567-.482-.35Z" transform="translate(-37.764 -30.099)" fill="#fff"/>
    <path id="Caminho_31381" data-name="Caminho 31381" d="M55.288,26.908l.184-.567-.482-.35h.6l.184-.567.184.567h.6l-.482.35.184.567-.482-.35Z" transform="translate(-47.771 -21.58)" fill="#fff"/>
    <path id="Caminho_31382" data-name="Caminho 31382" d="M67.242,37.085l.184-.567-.482-.35h.6l.184-.567.184.567h.6l-.482.35.184.567-.482-.35Z" transform="translate(-57.778 -30.099)" fill="#fff"/>
    <path id="Caminho_31383" data-name="Caminho 31383" d="M79.2,26.908l.184-.567-.482-.35h.6l.184-.567.184.567h.6l-.482.35.184.567-.482-.35Z" transform="translate(-67.785 -21.58)" fill="#fff"/>
    <path id="Caminho_31384" data-name="Caminho 31384" d="M91.15,37.085l.184-.567-.482-.35h.6l.184-.567.184.567h.6l-.482.35.184.567-.482-.35Z" transform="translate(-77.793 -30.099)" fill="#fff"/>
    <path id="Caminho_31385" data-name="Caminho 31385" d="M103.1,26.908l.184-.567-.482-.35h.6l.184-.567.184.567h.6l-.482.35.184.567-.482-.35Z" transform="translate(-87.799 -21.58)" fill="#fff"/>
    <path id="Caminho_31386" data-name="Caminho 31386" d="M115.058,37.085l.184-.567-.482-.35h.6l.184-.567.184.567h.6l-.482.35.184.567-.482-.35Z" transform="translate(-97.806 -30.099)" fill="#fff"/>
    <path id="Caminho_31387" data-name="Caminho 31387" d="M127.012,26.908l.184-.567-.482-.35h.6l.184-.567.184.567h.6l-.482.35.184.567-.482-.35Z" transform="translate(-107.813 -21.58)" fill="#fff"/>
    <path id="Caminho_31388" data-name="Caminho 31388" d="M7.471,47.263l.184-.567-.482-.35h.6l.184-.567.184.567h.6l-.482.35.184.567-.482-.35Z" transform="translate(-7.742 -38.62)" fill="#fff"/>
    <path id="Caminho_31389" data-name="Caminho 31389" d="M19.425,57.439l.184-.567-.482-.35h.6l.184-.567.184.567h.6l-.482.35.184.567-.482-.35Z" transform="translate(-17.75 -47.139)" fill="#fff"/>
    <path id="Caminho_31390" data-name="Caminho 31390" d="M31.379,47.263l.184-.567-.482-.35h.6l.184-.567.184.567h.6l-.482.35.184.567-.482-.35Z" transform="translate(-27.757 -38.62)" fill="#fff"/>
    <path id="Caminho_31391" data-name="Caminho 31391" d="M43.333,57.439l.184-.567-.482-.35h.6l.184-.567.184.567h.6l-.482.35.184.567-.482-.35Z" transform="translate(-37.764 -47.139)" fill="#fff"/>
    <path id="Caminho_31392" data-name="Caminho 31392" d="M55.288,47.263l.184-.567-.482-.35h.6l.184-.567.184.567h.6l-.482.35.184.567-.482-.35Z" transform="translate(-47.771 -38.62)" fill="#fff"/>
    <path id="Caminho_31393" data-name="Caminho 31393" d="M67.242,57.439l.184-.567-.482-.35h.6l.184-.567.184.567h.6l-.482.35.184.567-.482-.35Z" transform="translate(-57.778 -47.139)" fill="#fff"/>
    <path id="Caminho_31394" data-name="Caminho 31394" d="M79.2,47.263l.184-.567-.482-.35h.6l.184-.567.184.567h.6l-.482.35.184.567-.482-.35Z" transform="translate(-67.785 -38.62)" fill="#fff"/>
    <path id="Caminho_31395" data-name="Caminho 31395" d="M91.15,57.439l.184-.567-.482-.35h.6l.184-.567.184.567h.6l-.482.35.184.567-.482-.35Z" transform="translate(-77.793 -47.139)" fill="#fff"/>
    <path id="Caminho_31396" data-name="Caminho 31396" d="M103.1,47.263l.184-.567-.482-.35h.6l.184-.567.184.567h.6l-.482.35.184.567-.482-.35Z" transform="translate(-87.799 -38.62)" fill="#fff"/>
    <path id="Caminho_31397" data-name="Caminho 31397" d="M115.058,57.439l.184-.567-.482-.35h.6l.184-.567.184.567h.6l-.482.35.184.567-.482-.35Z" transform="translate(-97.806 -47.139)" fill="#fff"/>
    <path id="Caminho_31398" data-name="Caminho 31398" d="M127.012,47.263l.184-.567-.482-.35h.6l.184-.567.184.567h.6l-.482.35.184.567-.482-.35Z" transform="translate(-107.813 -38.62)" fill="#fff"/>
    <path id="Caminho_31399" data-name="Caminho 31399" d="M7.471,67.616l.184-.567-.482-.35h.6l.184-.567.184.567h.6l-.482.35.184.567-.482-.35Z" transform="translate(-7.742 -55.658)" fill="#fff"/>
    <path id="Caminho_31400" data-name="Caminho 31400" d="M19.425,77.793l.184-.567-.482-.35h.6l.184-.567.184.567h.6l-.482.35.184.567-.482-.35Z" transform="translate(-17.75 -64.178)" fill="#fff"/>
    <path id="Caminho_31401" data-name="Caminho 31401" d="M31.379,67.616l.184-.567-.482-.35h.6l.184-.567.184.567h.6l-.482.35.184.567-.482-.35Z" transform="translate(-27.757 -55.658)" fill="#fff"/>
    <path id="Caminho_31402" data-name="Caminho 31402" d="M43.333,77.793l.184-.567-.482-.35h.6l.184-.567.184.567h.6l-.482.35.184.567-.482-.35Z" transform="translate(-37.764 -64.178)" fill="#fff"/>
    <path id="Caminho_31403" data-name="Caminho 31403" d="M55.288,67.616l.184-.567-.482-.35h.6l.184-.567.184.567h.6l-.482.35.184.567-.482-.35Z" transform="translate(-47.771 -55.658)" fill="#fff"/>
    <path id="Caminho_31404" data-name="Caminho 31404" d="M67.242,77.793l.184-.567-.482-.35h.6l.184-.567.184.567h.6l-.482.35.184.567-.482-.35Z" transform="translate(-57.778 -64.178)" fill="#fff"/>
    <path id="Caminho_31405" data-name="Caminho 31405" d="M79.2,67.616l.184-.567L78.9,66.7h.6l.184-.567.184.567h.6l-.482.35.184.567-.482-.35Z" transform="translate(-67.785 -55.658)" fill="#fff"/>
    <path id="Caminho_31406" data-name="Caminho 31406" d="M91.15,77.793l.184-.567-.482-.35h.6l.184-.567.184.567h.6l-.482.35.184.567-.482-.35Z" transform="translate(-77.793 -64.178)" fill="#fff"/>
    <path id="Caminho_31407" data-name="Caminho 31407" d="M103.1,67.616l.184-.567-.482-.35h.6l.184-.567.184.567h.6l-.482.35.184.567-.482-.35Z" transform="translate(-87.799 -55.658)" fill="#fff"/>
    <path id="Caminho_31408" data-name="Caminho 31408" d="M115.058,77.793l.184-.567-.482-.35h.6l.184-.567.184.567h.6l-.482.35.184.567-.482-.35Z" transform="translate(-97.806 -64.178)" fill="#fff"/>
    <path id="Caminho_31409" data-name="Caminho 31409" d="M127.012,67.616l.184-.567-.482-.35h.6l.184-.567.184.567h.6l-.482.35.184.567-.482-.35Z" transform="translate(-107.813 -55.658)" fill="#fff"/>
    <path id="Caminho_31410" data-name="Caminho 31410" d="M7.471,87.97l.184-.567-.482-.35h.6l.184-.567.184.567h.6l-.482.35.184.567-.482-.35Z" transform="translate(-7.742 -72.697)" fill="#fff"/>
    <path id="Caminho_31411" data-name="Caminho 31411" d="M31.379,87.97l.184-.567-.482-.35h.6l.184-.567.184.567h.6l-.482.35.184.567-.482-.35Z" transform="translate(-27.757 -72.697)" fill="#fff"/>
    <path id="Caminho_31412" data-name="Caminho 31412" d="M55.288,87.97l.184-.567-.482-.35h.6l.184-.567.184.567h.6l-.482.35.184.567-.482-.35Z" transform="translate(-47.771 -72.697)" fill="#fff"/>
    <path id="Caminho_31413" data-name="Caminho 31413" d="M79.2,87.97l.184-.567-.482-.35h.6l.184-.567.184.567h.6l-.482.35.184.567-.482-.35Z" transform="translate(-67.785 -72.697)" fill="#fff"/>
    <path id="Caminho_31414" data-name="Caminho 31414" d="M103.1,87.97l.184-.567-.482-.35h.6l.184-.567.184.567h.6l-.482.35.184.567-.482-.35Z" transform="translate(-87.799 -72.697)" fill="#fff"/>
    <path id="Caminho_31415" data-name="Caminho 31415" d="M127.012,87.97l.184-.567-.482-.35h.6l.184-.567.184.567h.6l-.482.35.184.567-.482-.35Z" transform="translate(-107.813 -72.697)" fill="#fff"/>
  </g>
</svg>
