<svg xmlns="http://www.w3.org/2000/svg" xmlns:xlink="http://www.w3.org/1999/xlink" width="906.001" height="475.725" viewBox="0 0 906.001 475.725">
  <defs>
    <clipPath id="clip-path">
      <rect id="Retângulo_278" data-name="Retângulo 278" width="698.599" height="409.62" fill="none"/>
    </clipPath>
  </defs>
  <g id="Grupo_555" data-name="Grupo 555" transform="translate(20388.002 20957.83)">
    <path id="Subtração_2" data-name="Subtração 2" d="M239.141,289.293h-.033c-10.573,0-21-.4-30.976-1.2-9.781-.777-19.4-1.95-28.587-3.486-9-1.506-17.837-3.4-26.252-5.632-8.244-2.186-16.309-4.754-23.97-7.633A214.559,214.559,0,0,1,88.01,250.654a186.026,186.026,0,0,1-74.791-95.049,221.08,221.08,0,0,1-9.986-38.817A250.535,250.535,0,0,1,0,76.334C0,50.343,6.425,24.661,19.1,0H886.905C899.577,24.661,906,50.343,906,76.334a181.094,181.094,0,0,1-2.045,28.956,92.313,92.313,0,0,1-6.281,22.368,60.915,60.915,0,0,1-10.735,16.826,64.006,64.006,0,0,1-15.409,12.332,104.446,104.446,0,0,1-20.3,8.884,220.188,220.188,0,0,1-25.414,6.483c-18.693,3.754-41.093,6.625-67.029,9.949h-.009c-17.535,2.247-37.409,4.794-58.917,7.983-24.675,3.659-47.648,7.593-70.23,12.027-27.8,5.458-54.655,11.587-82.1,18.735-31.14,8.11-62.944,17.567-94.528,28.108-20.752,6.926-41.205,13.044-60.792,18.186-19.1,5.013-37.874,9.229-55.812,12.533-17.481,3.22-34.632,5.659-50.976,7.25C269.5,288.507,253.933,289.293,239.141,289.293Z" transform="translate(-19482 -20482.104) rotate(180)" fill="rgba(0,153,255,0.07)"/>
    <path id="Subtração_1" data-name="Subtração 1" d="M857.794,475.725H18.469A433.56,433.56,0,0,1,0,350.2c0-22.65,1.052-45.033,3.127-66.525a580.074,580.074,0,0,1,9.658-63.834c9.06-42.9,22.713-80.572,40.58-111.976A269.51,269.51,0,0,1,68.244,84.527a233.985,233.985,0,0,1,16.877-21,207.476,207.476,0,0,1,18.927-18.42,190.262,190.262,0,0,1,21.029-15.6A182.622,182.622,0,0,1,148.26,16.954a185.114,185.114,0,0,1,25.39-9.26A198.667,198.667,0,0,1,201.3,1.964,224.858,224.858,0,0,1,231.259,0a275.6,275.6,0,0,1,44.767,3.838,365.928,365.928,0,0,1,49.308,11.919,500.017,500.017,0,0,1,53.989,20.61c18.947,8.456,38.733,18.519,58.808,29.911,15.748,8.936,31.645,17.452,47.249,25.312,14.69,7.4,29.553,14.435,44.177,20.911,13.65,6.044,27.5,11.783,41.172,17.057,12.609,4.864,25.473,9.491,38.234,13.752,21.841,7.292,44.059,13.761,67.925,19.777,20.785,5.24,40.013,9.43,56.977,13.127h.007c25.089,5.467,46.757,10.189,64.838,16.363a147.963,147.963,0,0,1,24.579,10.661,88.828,88.828,0,0,1,19.636,14.609,83.434,83.434,0,0,1,14.9,20.279,123.7,123.7,0,0,1,10.383,27.67,238.968,238.968,0,0,1,6.074,36.783c1.331,13.976,1.978,29.552,1.978,47.616a433.564,433.564,0,0,1-18.469,125.527Z" transform="translate(-20388 -20957.83)" fill="rgba(0,153,255,0.08)"/>
    <g id="Grupo_554" data-name="Grupo 554" transform="translate(-20306.418 -20891.725)">
      <rect id="Retângulo_258" data-name="Retângulo 258" width="23.151" height="110.817" transform="translate(636.546 116.9)" fill="#697996"/>
      <rect id="Retângulo_259" data-name="Retângulo 259" width="29.707" height="110.817" transform="translate(609.911 116.9)" fill="#475572"/>
      <rect id="Retângulo_260" data-name="Retângulo 260" width="77.706" height="14.356" transform="translate(503.583 173.533)" fill="#697996"/>
      <g id="Grupo_553" data-name="Grupo 553">
        <g id="Grupo_552" data-name="Grupo 552" clip-path="url(#clip-path)">
          <path id="Caminho_595" data-name="Caminho 595" d="M523.639,182.933h3.425a6.946,6.946,0,0,0,6.945-6.945v-7.111H516.694v7.111a6.946,6.946,0,0,0,6.946,6.945" transform="translate(-84.425 -27.594)" fill="#626e8c"/>
          <path id="Caminho_596" data-name="Caminho 596" d="M524.17,169.717h19.208a3.58,3.58,0,0,0,3.581-3.58V143.313a3.58,3.58,0,0,0-3.581-3.581H524.17a3.58,3.58,0,0,0-3.58,3.581v22.824a3.58,3.58,0,0,0,3.58,3.58" transform="translate(-85.062 -22.832)" fill="#a6b1cc"/>
          <path id="Caminho_597" data-name="Caminho 597" d="M532.888,124.267h34.2V82.784h-34.2a20.5,20.5,0,0,0-20.5,20.5v.489a20.5,20.5,0,0,0,20.5,20.5" transform="translate(-83.722 -13.526)" fill="#838daa"/>
          <rect id="Retângulo_261" data-name="Retângulo 261" width="21.564" height="7.534" transform="translate(580.993 29.412)" fill="#838daa"/>
          <rect id="Retângulo_262" data-name="Retângulo 262" width="21.564" height="7.534" transform="translate(615.858 131.425)" fill="#838daa"/>
          <path id="Caminho_598" data-name="Caminho 598" d="M666.772,66.793l44.808,70.58a16.31,16.31,0,0,0,22.447,5.014l10.677-6.778a16.311,16.311,0,0,0,5.014-22.447L704.91,42.582a16.31,16.31,0,0,0-22.447-5.014l-10.677,6.778a16.311,16.311,0,0,0-5.014,22.447" transform="translate(-108.536 -5.727)" fill="#838daa"/>
          <path id="Caminho_599" data-name="Caminho 599" d="M690.872,66.793l44.808,70.58a16.311,16.311,0,0,0,22.447,5.014l10.677-6.778a16.31,16.31,0,0,0,5.014-22.447L729.01,42.582a16.312,16.312,0,0,0-22.448-5.014l-10.677,6.778a16.311,16.311,0,0,0-5.014,22.447" transform="translate(-112.474 -5.727)" fill="#a6b1cc"/>
          <path id="Caminho_600" data-name="Caminho 600" d="M664.337,447.3H796.452a9.2,9.2,0,0,0,9.2-9.2V239.81a9.2,9.2,0,0,0-9.2-9.2H664.337a9.2,9.2,0,0,0-9.2,9.2v198.3a9.2,9.2,0,0,0,9.2,9.2" transform="translate(-107.047 -37.681)" fill="#a6b1cc"/>
          <path id="Caminho_601" data-name="Caminho 601" d="M598.811,447.3H710.719a9,9,0,0,0,9-9V239.616a9,9,0,0,0-9-9H598.811a9,9,0,0,0-9,9V438.3a9,9,0,0,0,9,9" transform="translate(-96.372 -37.681)" fill="#838daa"/>
          <path id="Caminho_602" data-name="Caminho 602" d="M660.127,24.659A17.369,17.369,0,1,0,677.5,7.29a17.369,17.369,0,0,0-17.369,17.369" transform="translate(-107.861 -1.191)" fill="#626e8c"/>
          <rect id="Retângulo_263" data-name="Retângulo 263" width="23.205" height="8.738" transform="translate(519.232 0.183)" fill="#838daa"/>
          <rect id="Retângulo_264" data-name="Retângulo 264" width="23.856" height="8.738" transform="translate(521.78 108.162)" fill="#838daa"/>
          <path id="Caminho_603" data-name="Caminho 603" d="M634.7,101.932,641.47,18.6A16.31,16.31,0,0,0,626.576,1.078L613.971.054a16.311,16.311,0,0,0-17.526,14.894l-6.767,83.328A16.311,16.311,0,0,0,604.571,115.8l12.605,1.023A16.311,16.311,0,0,0,634.7,101.932" transform="translate(-96.342 0)" fill="#838daa"/>
          <path id="Caminho_604" data-name="Caminho 604" d="M662.439,101.932,669.206,18.6A16.311,16.311,0,0,0,654.312,1.078L641.707.054a16.311,16.311,0,0,0-17.526,14.894l-6.767,83.328A16.311,16.311,0,0,0,632.307,115.8l12.605,1.024a16.312,16.312,0,0,0,17.527-14.894" transform="translate(-100.874 0)" fill="#a6b1cc"/>
          <path id="Caminho_605" data-name="Caminho 605" d="M562.746,124.267h34.2V82.784h-34.2a20.5,20.5,0,0,0-20.5,20.5v.489a20.5,20.5,0,0,0,20.5,20.5" transform="translate(-88.601 -13.526)" fill="#a6b1cc"/>
          <path id="Caminho_606" data-name="Caminho 606" d="M511.137,234.675H632.626a4.986,4.986,0,0,0,4.986-4.985v-.119a4.986,4.986,0,0,0-4.986-4.985H511.137a4.985,4.985,0,0,0-4.985,4.985v.119a4.985,4.985,0,0,0,4.985,4.985" transform="translate(-82.703 -36.696)" fill="#626e8c"/>
          <path id="Caminho_607" data-name="Caminho 607" d="M612.611,234.675h81.125a4.985,4.985,0,0,0,4.985-4.985v-.119a4.985,4.985,0,0,0-4.985-4.985H612.611a4.985,4.985,0,0,0-4.985,4.985v.119a4.985,4.985,0,0,0,4.985,4.985" transform="translate(-99.283 -36.696)" fill="#a6b1cc"/>
          <path id="Caminho_608" data-name="Caminho 608" d="M526.428,157.775h.139a5.838,5.838,0,0,0,5.838-5.838V113.415a5.838,5.838,0,0,0-5.838-5.838h-.139a5.838,5.838,0,0,0-5.838,5.838v38.522a5.838,5.838,0,0,0,5.838,5.838" transform="translate(-85.062 -17.578)" fill="#626e8c"/>
          <path id="Caminho_609" data-name="Caminho 609" d="M514.311,169.717h19.208a3.58,3.58,0,0,0,3.58-3.58V143.313a3.58,3.58,0,0,0-3.58-3.581H514.311a3.58,3.58,0,0,0-3.58,3.581v22.824a3.58,3.58,0,0,0,3.58,3.58" transform="translate(-83.451 -22.832)" fill="#838daa"/>
          <path id="Caminho_610" data-name="Caminho 610" d="M533.345,198.937a1.356,1.356,0,0,0,1.2-1.992l-7.938-14.91a1.355,1.355,0,0,0-2.393,1.272l7.937,14.911a1.356,1.356,0,0,0,1.2.719" transform="translate(-85.627 -29.626)" fill="#838daa"/>
          <rect id="Retângulo_265" data-name="Retângulo 265" width="77.707" height="14.356" transform="translate(428.669 173.533)" fill="#475572"/>
          <path id="Caminho_611" data-name="Caminho 611" d="M628.842,459.856a29.021,29.021,0,1,0-29.021-29.021,29.053,29.053,0,0,0,29.021,29.021m0-56.687a27.666,27.666,0,1,1-27.666,27.666,27.7,27.7,0,0,1,27.666-27.666" transform="translate(-98.008 -65.654)" fill="#a6b1cc"/>
          <path id="Caminho_612" data-name="Caminho 612" d="M636.392,356.565H676.3a14.186,14.186,0,0,0,12.241-7.058l19.923-34.415a14.171,14.171,0,0,0,0-14.174L688.544,266.5a14.185,14.185,0,0,0-12.241-7.058h-39.91a14.185,14.185,0,0,0-12.241,7.058l-19.923,34.415a14.172,14.172,0,0,0,0,14.174l19.923,34.415a14.186,14.186,0,0,0,12.241,7.058M676.3,260.8a12.829,12.829,0,0,1,11.069,6.382L707.294,301.6a12.822,12.822,0,0,1,0,12.816l-19.923,34.415A12.829,12.829,0,0,1,676.3,355.21h-39.91a12.827,12.827,0,0,1-11.068-6.382L605.4,314.413a12.822,12.822,0,0,1,0-12.816l19.924-34.415a12.827,12.827,0,0,1,11.068-6.382Z" transform="translate(-98.418 -42.392)" fill="#a6b1cc"/>
          <path id="Caminho_613" data-name="Caminho 613" d="M668.39,427.086h17.262V374.723H684.3v51.008H668.39Z" transform="translate(-109.212 -61.228)" fill="#a6b1cc"/>
          <path id="Caminho_614" data-name="Caminho 614" d="M722.223,467.251h.139a6.527,6.527,0,0,0,6.52-6.52V421.144a6.527,6.527,0,0,0-6.52-6.52h-.139a6.527,6.527,0,0,0-6.52,6.52v39.587a6.527,6.527,0,0,0,6.52,6.52m.139-51.271a5.17,5.17,0,0,1,5.164,5.164v39.587a5.17,5.17,0,0,1-5.164,5.164h-.139a5.169,5.169,0,0,1-5.164-5.164V421.144a5.169,5.169,0,0,1,5.164-5.164Z" transform="translate(-116.942 -67.748)" fill="#a6b1cc"/>
          <path id="Caminho_615" data-name="Caminho 615" d="M764.746,322.215h44.93a4.694,4.694,0,0,0,4.689-4.688v-61.5a4.694,4.694,0,0,0-4.689-4.688h-44.93a4.694,4.694,0,0,0-4.689,4.688v61.5a4.694,4.694,0,0,0,4.689,4.688m44.93-69.522a3.337,3.337,0,0,1,3.334,3.332v61.5a3.338,3.338,0,0,1-3.334,3.333h-44.93a3.337,3.337,0,0,1-3.334-3.333v-61.5a3.337,3.337,0,0,1,3.334-3.332Z" transform="translate(-124.19 -41.067)" fill="#838daa"/>
          <path id="Caminho_616" data-name="Caminho 616" d="M730.646,375.223h52.438V335.247h-1.355v38.62H730.646Z" transform="translate(-119.384 -54.778)" fill="#838daa"/>
          <path id="Caminho_617" data-name="Caminho 617" d="M804.958,450.016H818.74v-1.355H806.313V389.829H740.937v1.355h64.021Z" transform="translate(-121.065 -63.696)" fill="#838daa"/>
          <path id="Caminho_618" data-name="Caminho 618" d="M757.479,466.273h36.368a4.213,4.213,0,0,0,4.207-4.208V409.011a4.213,4.213,0,0,0-4.207-4.208H757.479a4.213,4.213,0,0,0-4.207,4.208v53.053a4.213,4.213,0,0,0,4.207,4.208m36.368-60.114a2.856,2.856,0,0,1,2.852,2.853v53.053a2.856,2.856,0,0,1-2.852,2.853H757.479a2.856,2.856,0,0,1-2.852-2.853V409.011a2.856,2.856,0,0,1,2.852-2.853Z" transform="translate(-123.081 -66.143)" fill="#838daa"/>
          <path id="Caminho_619" data-name="Caminho 619" d="M601.028,275.641h.109a5.239,5.239,0,0,0,5.234-5.234V256.572a5.289,5.289,0,0,0-10.577,0v13.835a5.24,5.24,0,0,0,5.235,5.234m0-22.947a3.907,3.907,0,0,1,3.987,3.879v13.835a3.883,3.883,0,0,1-3.878,3.879h-.109a3.883,3.883,0,0,1-3.879-3.879V256.572a3.883,3.883,0,0,1,3.879-3.879" transform="translate(-97.35 -41.067)" fill="#a6b1cc"/>
          <path id="Caminho_620" data-name="Caminho 620" d="M812.227,267.567a4.929,4.929,0,1,0-4.93-4.929,4.934,4.934,0,0,0,4.93,4.929m0-8.5a3.574,3.574,0,1,1-3.575,3.574,3.577,3.577,0,0,1,3.575-3.574" transform="translate(-131.908 -42.108)" fill="#838daa"/>
          <path id="Caminho_621" data-name="Caminho 621" d="M770.344,262.326h18.438a.678.678,0,0,0,0-1.355H770.344a.678.678,0,0,0,0,1.355" transform="translate(-125.76 -42.641)" fill="#838daa"/>
          <path id="Caminho_622" data-name="Caminho 622" d="M770.344,269.419h18.438a.678.678,0,0,0,0-1.355H770.344a.678.678,0,0,0,0,1.355" transform="translate(-125.76 -43.8)" fill="#838daa"/>
          <path id="Caminho_623" data-name="Caminho 623" d="M770.344,276.512h18.438a.678.678,0,0,0,0-1.355H770.344a.678.678,0,0,0,0,1.355" transform="translate(-125.76 -44.959)" fill="#838daa"/>
          <path id="Caminho_624" data-name="Caminho 624" d="M770.344,283.6h18.438a.678.678,0,0,0,0-1.355H770.344a.678.678,0,0,0,0,1.355" transform="translate(-125.76 -46.118)" fill="#838daa"/>
          <path id="Caminho_625" data-name="Caminho 625" d="M770.344,290.7h18.438a.678.678,0,0,0,0-1.355H770.344a.678.678,0,0,0,0,1.355" transform="translate(-125.76 -47.277)" fill="#838daa"/>
          <path id="Caminho_626" data-name="Caminho 626" d="M770.344,297.789h18.438a.678.678,0,0,0,0-1.355H770.344a.678.678,0,0,0,0,1.355" transform="translate(-125.76 -48.436)" fill="#838daa"/>
          <path id="Caminho_627" data-name="Caminho 627" d="M770.344,304.881h18.438a.678.678,0,0,0,0-1.355H770.344a.678.678,0,0,0,0,1.355" transform="translate(-125.76 -49.595)" fill="#838daa"/>
          <path id="Caminho_628" data-name="Caminho 628" d="M770.344,311.974h18.438a.678.678,0,0,0,0-1.355H770.344a.678.678,0,0,0,0,1.355" transform="translate(-125.76 -50.754)" fill="#838daa"/>
          <path id="Caminho_629" data-name="Caminho 629" d="M770.344,319.067h18.438a.678.678,0,0,0,0-1.355H770.344a.678.678,0,0,0,0,1.355" transform="translate(-125.76 -51.913)" fill="#838daa"/>
          <path id="Caminho_630" data-name="Caminho 630" d="M770.344,326.159h18.438a.678.678,0,0,0,0-1.355H770.344a.678.678,0,0,0,0,1.355" transform="translate(-125.76 -53.071)" fill="#838daa"/>
          <path id="Caminho_631" data-name="Caminho 631" d="M696.472,75.323a.675.675,0,0,0,.372-.112l4.678-3.083A.678.678,0,0,0,700.775,71L696.1,74.08a.678.678,0,0,0,.374,1.243" transform="translate(-113.689 -11.582)" fill="#838daa"/>
          <path id="Caminho_632" data-name="Caminho 632" d="M698.224,77.983a.675.675,0,0,0,.373-.112l4.677-3.083a.678.678,0,0,0-.746-1.132L697.85,76.74a.678.678,0,0,0,.373,1.243" transform="translate(-113.976 -12.017)" fill="#838daa"/>
          <path id="Caminho_633" data-name="Caminho 633" d="M699.977,80.643a.671.671,0,0,0,.373-.112l4.679-3.083a.678.678,0,1,0-.747-1.132L699.6,79.4a.678.678,0,0,0,.373,1.243" transform="translate(-114.262 -12.452)" fill="#838daa"/>
          <path id="Caminho_634" data-name="Caminho 634" d="M701.73,83.3a.68.68,0,0,0,.373-.112l4.679-3.083a.678.678,0,1,0-.747-1.132l-4.678,3.084a.677.677,0,0,0,.373,1.243" transform="translate(-114.548 -12.886)" fill="#838daa"/>
          <path id="Caminho_635" data-name="Caminho 635" d="M703.485,85.964a.682.682,0,0,0,.373-.112l4.677-3.084a.678.678,0,0,0-.746-1.132l-4.677,3.085a.678.678,0,0,0,.373,1.243" transform="translate(-114.835 -13.321)" fill="#838daa"/>
          <path id="Caminho_636" data-name="Caminho 636" d="M705.237,88.624a.678.678,0,0,0,.373-.112l4.677-3.084a.678.678,0,1,0-.746-1.131l-4.677,3.084a.678.678,0,0,0,.373,1.243" transform="translate(-115.122 -13.755)" fill="#838daa"/>
          <path id="Caminho_637" data-name="Caminho 637" d="M706.99,91.283a.678.678,0,0,0,.373-.112l4.679-3.083a.678.678,0,1,0-.747-1.132l-4.678,3.084a.678.678,0,0,0,.373,1.243" transform="translate(-115.408 -14.19)" fill="#838daa"/>
          <path id="Caminho_638" data-name="Caminho 638" d="M708.743,93.944a.682.682,0,0,0,.373-.112l4.679-3.083a.678.678,0,1,0-.747-1.132L708.37,92.7a.678.678,0,0,0,.373,1.243" transform="translate(-115.694 -14.625)" fill="#838daa"/>
          <path id="Caminho_639" data-name="Caminho 639" d="M710.5,96.6a.678.678,0,0,0,.373-.112l4.677-3.083a.678.678,0,0,0-.746-1.132l-4.677,3.084A.678.678,0,0,0,710.5,96.6" transform="translate(-115.981 -15.059)" fill="#838daa"/>
          <path id="Caminho_640" data-name="Caminho 640" d="M712.251,99.265a.675.675,0,0,0,.373-.112l4.677-3.084a.678.678,0,0,0-.746-1.131l-4.677,3.084a.678.678,0,0,0,.373,1.243" transform="translate(-116.268 -15.494)" fill="#838daa"/>
          <path id="Caminho_641" data-name="Caminho 641" d="M754.082,426.8h22.392V405.614h-1.355v19.834H754.082Z" transform="translate(-123.213 -66.275)" fill="#838daa"/>
          <path id="Caminho_642" data-name="Caminho 642" d="M637.46,367h17.283a3.042,3.042,0,0,0,0-6.085H637.46a3.042,3.042,0,0,0,0,6.085m17.283-4.729a1.687,1.687,0,0,1,0,3.374H637.46a1.687,1.687,0,0,1,0-3.374Z" transform="translate(-103.665 -58.972)" fill="#a6b1cc"/>
          <rect id="Retângulo_266" data-name="Retângulo 266" width="24.979" height="3.456" transform="translate(456.017 124.504)" fill="#475572"/>
          <path id="Caminho_643" data-name="Caminho 643" d="M574.108,192.285h31.133a3.194,3.194,0,0,0,2.772-4.209L595.644,144.1a2.96,2.96,0,0,0-2.772-2.27H561.739a3.2,3.2,0,0,0-2.772,4.209l12.369,43.971a2.958,2.958,0,0,0,2.772,2.27" transform="translate(-91.31 -23.175)" fill="#a6b1cc"/>
          <path id="Caminho_644" data-name="Caminho 644" d="M583.3,184.538l10.4,11.153H578.867Z" transform="translate(-94.584 -30.153)" fill="#ffeb9a"/>
          <path id="Caminho_645" data-name="Caminho 645" d="M760.892,147.358a12.676,12.676,0,1,0-12.677-12.676,12.69,12.69,0,0,0,12.677,12.676m0-24a11.321,11.321,0,1,1-11.322,11.321,11.333,11.333,0,0,1,11.322-11.321" transform="translate(-122.255 -19.935)" fill="#838daa"/>
          <rect id="Retângulo_267" data-name="Retângulo 267" width="1.356" height="85.004" transform="matrix(0.83, -0.558, 0.558, 0.83, 585.489, 33.773)" fill="#838daa"/>
          <path id="Caminho_646" data-name="Caminho 646" d="M648.19,39.666a13.584,13.584,0,1,0-13.584-13.584A13.6,13.6,0,0,0,648.19,39.666m0-25.812a12.228,12.228,0,1,1-12.228,12.228A12.242,12.242,0,0,1,648.19,13.854" transform="translate(-103.691 -2.042)" fill="#838daa"/>
          <path id="Caminho_647" data-name="Caminho 647" d="M642.107,125.331a13.584,13.584,0,1,0-13.583-13.584,13.6,13.6,0,0,0,13.583,13.584m0-25.812a12.228,12.228,0,1,1-12.229,12.228,12.242,12.242,0,0,1,12.229-12.228" transform="translate(-102.698 -16.04)" fill="#838daa"/>
          <path id="Caminho_648" data-name="Caminho 648" d="M644.628,90.531a.68.68,0,0,0,.676-.632l3.131-46.02a.677.677,0,0,0-.63-.722.687.687,0,0,0-.723.629l-3.131,46.021a.677.677,0,0,0,.63.722l.047,0" transform="translate(-105.218 -7.052)" fill="#838daa"/>
          <path id="Caminho_649" data-name="Caminho 649" d="M653.334,27.853A4.333,4.333,0,1,0,649,23.52a4.338,4.338,0,0,0,4.334,4.333m0-7.31a2.977,2.977,0,1,1-2.978,2.977,2.981,2.981,0,0,1,2.978-2.977" transform="translate(-106.043 -3.135)" fill="#838daa"/>
          <path id="Caminho_650" data-name="Caminho 650" d="M641.524,119.851a6.542,6.542,0,1,0-6.542-6.542,6.549,6.549,0,0,0,6.542,6.542m0-11.728a5.187,5.187,0,1,1-5.187,5.186,5.192,5.192,0,0,1,5.187-5.186" transform="translate(-103.753 -17.445)" fill="#838daa"/>
          <path id="Caminho_651" data-name="Caminho 651" d="M612.994,114.945h13.56a.678.678,0,0,0,0-1.355h-13.56a.678.678,0,0,0,0,1.355" transform="translate(-100.049 -18.56)" fill="#838daa"/>
          <path id="Caminho_652" data-name="Caminho 652" d="M540.263,118.8H574.8a13.076,13.076,0,1,0,0-26.151H539.7a.69.69,0,0,0-.647.69v24.757a.678.678,0,0,0,.649.677l.186.011c.125.009.249.017.376.017M574.8,93.988a11.728,11.728,0,0,1,0,23.455H540.407V93.988Z" transform="translate(-88.078 -15.138)" fill="#838daa"/>
          <path id="Caminho_653" data-name="Caminho 653" d="M550.441,102.811h9.79a3.071,3.071,0,0,0,0-6.142h-9.79a3.071,3.071,0,0,0,0,6.142m9.79-4.787a1.716,1.716,0,0,1,0,3.432h-9.79a1.716,1.716,0,0,1,0-3.432Z" transform="translate(-89.442 -15.795)" fill="#838daa"/>
          <path id="Caminho_654" data-name="Caminho 654" d="M543.837,89.012h55.382a.678.678,0,1,0,0-1.355H543.837a.678.678,0,0,0,0,1.355" transform="translate(-88.75 -14.323)" fill="#838daa"/>
          <path id="Caminho_655" data-name="Caminho 655" d="M516.918,168.484h5.745a3.366,3.366,0,0,0,3.363-3.361V149.767a3.367,3.367,0,0,0-3.363-3.362h-5.745a3.367,3.367,0,0,0-3.364,3.362v15.355a3.366,3.366,0,0,0,3.364,3.361m5.745-20.724a2.01,2.01,0,0,1,2.008,2.007v15.355a2.009,2.009,0,0,1-2.008,2.006h-5.745a2.01,2.01,0,0,1-2.009-2.006V149.767a2.011,2.011,0,0,1,2.009-2.007Z" transform="translate(-83.912 -23.922)" fill="#a6b1cc"/>
          <rect id="Retângulo_268" data-name="Retângulo 268" width="14.58" height="1.355" transform="translate(441.436 138.281)" fill="#a6b1cc"/>
          <path id="Caminho_656" data-name="Caminho 656" d="M338.075,193.436H312.733v7.86h25.342a3.93,3.93,0,0,0,0-7.86" transform="translate(-51.099 -31.606)" fill="#c6d0e5"/>
          <path id="Caminho_657" data-name="Caminho 657" d="M140.66,137.915c-7.112,0-15.147-5.765-17.947-12.877L95.972,57.116c-2.8-7.112.7-12.877,7.807-12.877S118.927,50,121.727,57.116l27.706,68.525s-1.661,12.274-8.773,12.274" transform="translate(-15.524 -7.228)" fill="#838daa"/>
          <rect id="Retângulo_269" data-name="Retângulo 269" width="79.483" height="290.543" transform="translate(54.426 118.412)" fill="#838daa"/>
          <rect id="Retângulo_270" data-name="Retângulo 270" width="25.754" height="290.543" transform="translate(28.672 118.412)" fill="#a6b1cc"/>
          <path id="Caminho_658" data-name="Caminho 658" d="M85.526,449.714H297.19a6.294,6.294,0,0,0,6.295-6.295V251.671a6.294,6.294,0,0,0-6.295-6.294H85.526a6.294,6.294,0,0,0-6.294,6.294V443.419a6.294,6.294,0,0,0,6.294,6.295" transform="translate(-12.946 -40.093)" fill="#a6b1cc"/>
          <path id="Caminho_659" data-name="Caminho 659" d="M290,449.714H402.3a6.294,6.294,0,0,0,6.295-6.295V251.671a6.294,6.294,0,0,0-6.295-6.294H290a6.294,6.294,0,0,0-6.294,6.294V443.419A6.294,6.294,0,0,0,290,449.714" transform="translate(-46.356 -40.093)" fill="#838daa"/>
          <rect id="Retângulo_271" data-name="Retângulo 271" width="20.624" height="8.06" transform="translate(294.696 135.328)" fill="#a6b1cc"/>
          <path id="Caminho_660" data-name="Caminho 660" d="M316.251,191.878V435.607h60.237V191.878a30.119,30.119,0,1,0-60.237,0" transform="translate(-51.674 -26.431)" fill="#a6b1cc"/>
          <path id="Caminho_661" data-name="Caminho 661" d="M340.9,191.878V435.607H401.14V191.878a30.119,30.119,0,1,0-60.237,0" transform="translate(-55.702 -26.431)" fill="#838daa"/>
          <path id="Caminho_662" data-name="Caminho 662" d="M132.277,193.076a24.5,24.5,0,1,1-24.5-24.5,24.5,24.5,0,0,1,24.5,24.5" transform="translate(-13.606 -27.544)" fill="#626e8c"/>
          <rect id="Retângulo_272" data-name="Retângulo 272" width="38.278" height="66.51" transform="translate(113.247 132.276)" fill="#a6b1cc"/>
          <path id="Caminho_663" data-name="Caminho 663" d="M162.125,191.366a33.255,33.255,0,1,1-33.255-33.255,33.255,33.255,0,0,1,33.255,33.255" transform="translate(-15.623 -25.835)" fill="#a6b1cc"/>
          <path id="Caminho_664" data-name="Caminho 664" d="M206.093,191.366a33.255,33.255,0,1,1-33.255-33.255,33.255,33.255,0,0,1,33.255,33.255" transform="translate(-22.807 -25.835)" fill="#838daa"/>
          <rect id="Retângulo_273" data-name="Retângulo 273" width="8.236" height="39.706" transform="translate(153.762 145.678)" fill="#a6b1cc"/>
          <path id="Caminho_665" data-name="Caminho 665" d="M199.769,193.983a19.853,19.853,0,1,1-19.853-19.853,19.853,19.853,0,0,1,19.853,19.853" transform="translate(-26.154 -28.452)" fill="#a6b1cc"/>
          <path id="Caminho_666" data-name="Caminho 666" d="M208.547,193.983a19.853,19.853,0,1,1-19.853-19.853,19.853,19.853,0,0,1,19.853,19.853" transform="translate(-27.588 -28.452)" fill="#626e8c"/>
          <path id="Caminho_667" data-name="Caminho 667" d="M372.4,212.724a14.861,14.861,0,1,1,14.861-14.861A14.879,14.879,0,0,1,372.4,212.724m0-28.368a13.506,13.506,0,1,0,13.505,13.506A13.522,13.522,0,0,0,372.4,184.356" transform="translate(-58.42 -29.901)" fill="#a6b1cc"/>
          <rect id="Retângulo_274" data-name="Retângulo 274" width="1.355" height="203.892" transform="translate(344.762 205.284)" fill="#a6b1cc"/>
          <path id="Caminho_668" data-name="Caminho 668" d="M10.487,44.238H90.972l34.419,82.8H50.981Z" transform="translate(-1.713 -7.228)" fill="#838daa"/>
          <path id="Caminho_669" data-name="Caminho 669" d="M45.653,137.915c-7.112,0-14.181-3.762-16.981-10.874L.965,57.116c-2.8-7.112.7-12.877,7.807-12.877S23.92,50,26.72,57.116L54.426,127.04s-1.661,10.874-8.773,10.874" transform="translate(0 -7.228)" fill="#a6b1cc"/>
          <path id="Caminho_670" data-name="Caminho 670" d="M62.659,99.284H121.9a.855.855,0,0,0,.873-1.228l-14.666-35.7a2.069,2.069,0,0,0-1.839-1.121H47.028a.855.855,0,0,0-.873,1.228l14.666,35.7a2.068,2.068,0,0,0,1.839,1.122" transform="translate(-7.528 -10.005)" fill="#53b5e5"/>
          <path id="Caminho_671" data-name="Caminho 671" d="M59.624,99.349h59.241a.855.855,0,0,0,.873-1.229l-14.666-35.7a2.066,2.066,0,0,0-1.838-1.121H43.993a.854.854,0,0,0-.873,1.228l14.666,35.7a2.069,2.069,0,0,0,1.839,1.122" transform="translate(-7.032 -10.016)" fill="#69cef7"/>
          <path id="Caminho_672" data-name="Caminho 672" d="M97.719,70.632h-4.77a.64.64,0,0,1-.479-.428c-.1-.24-.039-.443.129-.443h4.77a.644.644,0,0,1,.479.428c.1.24.038.443-.13.443" transform="translate(-15.102 -11.398)" fill="#3a9cd8"/>
          <path id="Caminho_673" data-name="Caminho 673" d="M88.805,70.664H78.338a.629.629,0,0,1-.479-.421c-.1-.239-.038-.45.13-.451H88.456a.628.628,0,0,1,.479.421c.1.24.039.451-.129.451" transform="translate(-12.714 -11.404)" fill="#3a9cd8"/>
          <path id="Caminho_674" data-name="Caminho 674" d="M100.387,76.1H98.052a.647.647,0,0,1-.48-.432c-.1-.24-.038-.439.13-.44h2.335a.647.647,0,0,1,.48.432c.1.24.038.44-.13.44" transform="translate(-15.935 -12.292)" fill="#3a9cd8"/>
          <path id="Caminho_675" data-name="Caminho 675" d="M94.944,76.119H89.028a.637.637,0,0,1-.479-.427c-.1-.24-.039-.444.129-.445h5.916a.639.639,0,0,1,.479.427c.1.24.038.445-.13.445" transform="translate(-14.461 -12.295)" fill="#3a9cd8"/>
          <path id="Caminho_676" data-name="Caminho 676" d="M86.007,76.143H80.531a.639.639,0,0,1-.479-.428c-.1-.24-.038-.443.13-.444h5.475a.639.639,0,0,1,.479.427c.1.24.039.444-.129.444" transform="translate(-13.073 -12.299)" fill="#3a9cd8"/>
          <path id="Caminho_677" data-name="Caminho 677" d="M101.952,81.573h-5.54a.639.639,0,0,1-.479-.427c-.1-.239-.038-.443.13-.444h5.54a.64.64,0,0,1,.479.428c.1.24.038.443-.13.444" transform="translate(-15.668 -13.186)" fill="#3a9cd8"/>
          <path id="Caminho_678" data-name="Caminho 678" d="M92.421,81.6h-9.7a.63.63,0,0,1-.479-.422c-.1-.24-.038-.449.129-.45h9.7a.632.632,0,0,1,.479.422c.1.24.038.449-.13.45" transform="translate(-13.431 -13.191)" fill="#3a9cd8"/>
          <path id="Caminho_679" data-name="Caminho 679" d="M87.692,87.087H84.916c-.168,0-.382-.192-.479-.431s-.038-.44.129-.441h2.777a.647.647,0,0,1,.479.432c.1.239.038.439-.13.44" transform="translate(-13.789 -14.087)" fill="#3a9cd8"/>
          <path id="Caminho_680" data-name="Caminho 680" d="M123.142,100.51H105.016a2.829,2.829,0,0,1-2.413-1.748L98,87.669a1.738,1.738,0,0,1,.076-1.647,1.441,1.441,0,0,1,1.233-.622h18.126a2.83,2.83,0,0,1,2.413,1.749l4.606,11.093a1.734,1.734,0,0,1-.074,1.647,1.445,1.445,0,0,1-1.234.621M99.305,86.755a.263.263,0,0,0-.107.019c-.011.013-.048.137.05.375l4.607,11.093a1.518,1.518,0,0,0,1.16.913h18.126c.125-.042.147-.175.056-.393l-4.606-11.093a1.521,1.521,0,0,0-1.16-.914Z" transform="translate(-15.985 -13.954)" fill="#3a9cd8"/>
          <rect id="Retângulo_275" data-name="Retângulo 275" width="15.561" height="1.355" transform="translate(69.381 78.324)" fill="#3a9cd8"/>
          <path id="Caminho_681" data-name="Caminho 681" d="M66.786,84.632c-4.407,0-9.584-3.834-11.54-8.546-1.075-2.588-1.027-5.071.134-6.811a5.361,5.361,0,0,1,4.657-2.255c4.406,0,9.585,3.833,11.541,8.545,1.075,2.589,1.026,5.072-.136,6.812a5.358,5.358,0,0,1-4.656,2.255M60.037,68.376a4,4,0,0,0-3.53,1.651C55.6,71.384,55.6,73.4,56.5,75.566c1.764,4.252,6.379,7.711,10.288,7.711a4,4,0,0,0,3.53-1.652c.905-1.356.909-3.375.011-5.538-1.766-4.251-6.382-7.71-10.289-7.71" transform="translate(-8.901 -10.951)" fill="#3a9cd8"/>
          <path id="Caminho_682" data-name="Caminho 682" d="M132.787,132.29H77.054a5.922,5.922,0,0,1-5.333-3.381l-4.836-10.256a3.377,3.377,0,0,1,3.054-4.817h56.183a4.109,4.109,0,0,1,3.7,2.346l5.621,11.918a2.938,2.938,0,0,1-2.656,4.19m-62.848-17.1a2.022,2.022,0,0,0-1.828,2.884l4.836,10.256a4.561,4.561,0,0,0,4.107,2.6h55.733a1.583,1.583,0,0,0,1.431-2.256L128.6,116.76a2.749,2.749,0,0,0-2.475-1.569Z" transform="translate(-10.876 -18.6)" fill="#a6b1cc"/>
          <path id="Caminho_683" data-name="Caminho 683" d="M127.845,132.939l-5.2-10.293a2.2,2.2,0,0,0-1.969-1.211H68.455V120.08h52.222a3.546,3.546,0,0,1,3.179,1.954l5.2,10.293Z" transform="translate(-11.185 -19.62)" fill="#a6b1cc"/>
          <path id="Caminho_684" data-name="Caminho 684" d="M128.222,130.215a4.287,4.287,0,0,1-3.907-3.023,2.729,2.729,0,0,1,.364-2.419,2.54,2.54,0,0,1,2.094-.977,4.287,4.287,0,0,1,3.907,3.023,2.731,2.731,0,0,1-.364,2.419,2.538,2.538,0,0,1-2.094.977m-1.449-5.064a1.221,1.221,0,0,0-1.011.437,1.379,1.379,0,0,0-.144,1.231,2.952,2.952,0,0,0,2.6,2.041,1.219,1.219,0,0,0,1.011-.437,1.379,1.379,0,0,0,.144-1.231,2.954,2.954,0,0,0-2.6-2.041" transform="translate(-20.292 -20.228)" fill="#a6b1cc"/>
          <path id="Caminho_685" data-name="Caminho 685" d="M103.523,130.12H82.149a4.267,4.267,0,0,1-3.79-2.816,2.542,2.542,0,0,1,.256-2.32,2.317,2.317,0,0,1,1.949-.929h21.374a4.263,4.263,0,0,1,3.79,2.817,2.539,2.539,0,0,1-.256,2.318,2.314,2.314,0,0,1-1.949.93m-22.958-4.71a.992.992,0,0,0-.85.366,1.223,1.223,0,0,0-.071,1.1,2.924,2.924,0,0,0,2.506,1.893h21.374a.992.992,0,0,0,.85-.366,1.223,1.223,0,0,0,.071-1.1,2.92,2.92,0,0,0-2.506-1.893Z" transform="translate(-12.777 -20.27)" fill="#a6b1cc"/>
          <path id="Caminho_686" data-name="Caminho 686" d="M50.242,169.669a8.015,8.015,0,1,1,8.014-8.015,8.024,8.024,0,0,1-8.014,8.015m0-14.674a6.659,6.659,0,1,0,6.659,6.659A6.667,6.667,0,0,0,50.242,155" transform="translate(-6.9 -25.104)" fill="#838daa"/>
          <path id="Caminho_687" data-name="Caminho 687" d="M50.642,465.544a5.97,5.97,0,0,1-5.964-5.963v-39.7a5.963,5.963,0,1,1,11.927,0v39.7a5.969,5.969,0,0,1-5.962,5.963m0-50.276a4.614,4.614,0,0,0-4.609,4.608v39.7a4.608,4.608,0,0,0,9.216,0v-39.7a4.613,4.613,0,0,0-4.607-4.608" transform="translate(-7.3 -67.631)" fill="#838daa"/>
          <rect id="Retângulo_276" data-name="Retângulo 276" width="1.355" height="203.072" transform="translate(42.664 143.888)" fill="#838daa"/>
          <path id="Caminho_688" data-name="Caminho 688" d="M262.932,417.35H181.906V274.159H73.472V272.8h109.79V415.995h79.67Z" transform="translate(-12.005 -44.575)" fill="#838daa"/>
          <path id="Caminho_689" data-name="Caminho 689" d="M255.13,391.793h-17.7a6.622,6.622,0,0,1-6.615-6.615V279.419a6.622,6.622,0,0,1,6.615-6.615h17.7a6.622,6.622,0,0,1,6.615,6.615V385.178a6.622,6.622,0,0,1-6.615,6.615m-17.7-117.633a5.266,5.266,0,0,0-5.26,5.26V385.178a5.266,5.266,0,0,0,5.26,5.26h17.7a5.266,5.266,0,0,0,5.26-5.26V279.419a5.266,5.266,0,0,0-5.26-5.26Z" transform="translate(-37.715 -44.575)" fill="#838daa"/>
          <path id="Caminho_690" data-name="Caminho 690" d="M130.507,458.1a37.618,37.618,0,1,1,37.618-37.618A37.66,37.66,0,0,1,130.507,458.1m0-73.88A36.262,36.262,0,1,0,166.77,420.48a36.3,36.3,0,0,0-36.263-36.262" transform="translate(-15.178 -62.558)" fill="#838daa"/>
          <rect id="Retângulo_277" data-name="Retângulo 277" width="1.355" height="226.811" transform="translate(313.303 182.144)" fill="#a6b1cc"/>
          <path id="Caminho_691" data-name="Caminho 691" d="M236.1,201.3H196.5a3.93,3.93,0,1,1,0-7.86h39.6a3.93,3.93,0,1,1,0,7.86" transform="translate(-31.465 -31.606)" fill="#c6d0e5"/>
          <path id="Caminho_692" data-name="Caminho 692" d="M273.075,208.792H199.948a13.244,13.244,0,0,1,0-26.489h73.127a13.244,13.244,0,0,1,0,26.489" transform="translate(-30.507 -29.787)" fill="#838daa"/>
          <path id="Caminho_693" data-name="Caminho 693" d="M304.788,195.588a13.037,13.037,0,1,1-13.037-13.037,13.037,13.037,0,0,1,13.037,13.037" transform="translate(-45.54 -29.828)" fill="#626e8c"/>
          <path id="Caminho_694" data-name="Caminho 694" d="M294.92,193.436a3.93,3.93,0,1,0,0,7.86h14.259v-7.86Z" transform="translate(-47.546 -31.606)" fill="#c6d0e5"/>
        </g>
      </g>
    </g>
  </g>
</svg>
