<svg xmlns="http://www.w3.org/2000/svg" width="361.032" height="233.626" viewBox="0 0 361.032 233.626">
  <g id="Grupo_10689" data-name="Grupo 10689" transform="translate(1059.84 141.033)">
    <path id="Caminho_31146" data-name="Caminho 31146" d="M-331.226,306.6h0A92.821,92.821,0,0,1-332,286.478l.779-11.112h0c-4.291,8.538-3.321,19.777,0,31.231Z" transform="translate(-455.919 -261.584)" fill="#cacaca"/>
    <path id="Caminho_31147" data-name="Caminho 31147" d="M-319.713,332.956h0a68.226,68.226,0,0,1-.375-11.975l.375-6.615h0C-321.778,319.448-321.311,326.138-319.713,332.956Z" transform="translate(-464.086 -286.084)" fill="#cacaca"/>
    <path id="Caminho_31148" data-name="Caminho 31148" d="M-331.4,384.483V388.2a1.122,1.122,0,0,1-1.115,1.115h-1.859a.371.371,0,0,0-.372.369v30.49a1.122,1.122,0,0,1-1.115,1.115h-22.68a1.116,1.116,0,0,1-1.115-1.115V389.689a.373.373,0,0,0-.372-.372h-2.231a1.116,1.116,0,0,1-1.115-1.115v-3.718a1.114,1.114,0,0,1,1.112-1.115h29.747A1.119,1.119,0,0,1-331.4,384.483Z" transform="translate(-437.521 -329.432)" fill="#f2f2f2"/>
    <rect id="Retângulo_6569" data-name="Retângulo 6569" width="24.91" height="1.115" transform="translate(-797.148 60.666)" fill="#e6e6e6"/>
    <path id="Caminho_31149" data-name="Caminho 31149" d="M-329.1,428.845a32.014,32.014,0,0,1-25.282,0v-7.858a39.7,39.7,0,0,1,25.282,0Z" transform="translate(-443.175 -351.766)" fill="#e6e6e6"/>
    <circle id="Elipse_71" data-name="Elipse 71" cx="13.532" cy="13.532" r="13.532" transform="translate(-905.513 -75.009)" fill="#2f2e41"/>
    <path id="Caminho_31150" data-name="Caminho 31150" d="M-616.069,34.136a13.534,13.534,0,0,1,13.532,13.536,13.537,13.537,0,0,1-1.62,6.418,13.529,13.529,0,0,0-2.122-19.014A13.528,13.528,0,0,0-625.293,37.2a13.517,13.517,0,0,0-1.341,2.027A13.5,13.5,0,0,1-616.069,34.136Z" transform="translate(-272.142 -108.772)" fill="#2f2e41"/>
    <circle id="Elipse_72" data-name="Elipse 72" cx="39.749" cy="39.749" r="39.749" transform="translate(-957.017 -141.005)" fill="#2f2e41"/>
    <path id="Caminho_31151" data-name="Caminho 31151" d="M-780.62-125.918a39.742,39.742,0,0,1,55.088-4.168c-.325-.309-.647-.621-.984-.921a39.749,39.749,0,0,0-56.115,3.331,39.749,39.749,0,0,0,3.3,56.084c.338.3.685.583,1.03.87A39.742,39.742,0,0,1-780.62-125.918Z" transform="translate(-167.845 0)" fill="#2f2e41"/>
    <circle id="Elipse_73" data-name="Elipse 73" cx="25.601" cy="25.601" r="25.601" transform="translate(-943.206 -113.045)" fill="#ffb8b8"/>
    <path id="Caminho_31152" data-name="Caminho 31152" d="M-772.512,90.655l-27.4,1.232s2.287,14.168-12.535,15.516-28.3-2.695-33.686,7.411S-849.2,160.9-849.2,160.9s10.106,36.381,18.19,41.771,78.825-2.021,78.825-2.021l29.606-37.382-1-28.829a24.718,24.718,0,0,0-29.072-23.571q-.436.082-.878.177c-.442.094-3.252-2.431-12.175-6.892C-771.161,101.428-772.512,90.655-772.512,90.655Z" transform="translate(-132.014 -145.548)" fill="#cacaca"/>
    <path id="Caminho_31153" data-name="Caminho 31153" d="M-802.054,130.853s6.512,11.815,3.817,28.658,8.612,52.465,8.612,52.465l8.085-2.021s-5.39-35.033-4.042-43.118,1.719-31.942-5.018-35.984S-802.054,130.853-802.054,130.853Z" transform="translate(-161.943 -169.671)" fill="#2f2e41"/>
    <path id="Caminho_31154" data-name="Caminho 31154" d="M-592.323,143.966l2.832,74.592,5.39,3.369s7.748-81.857,3.705-81.857h-8.225a3.707,3.707,0,0,0-3.707,3.707h0Q-592.328,143.871-592.323,143.966Z" transform="translate(-293.694 -176.59)" fill="#2f2e41"/>
    <circle id="Elipse_74" data-name="Elipse 74" cx="3.369" cy="3.369" r="3.369" transform="translate(-951.231 33.883)" fill="#ef7a00"/>
    <circle id="Elipse_75" data-name="Elipse 75" cx="3.369" cy="3.369" r="3.369" transform="translate(-883.859 37.252)" fill="#ef7a00"/>
    <path id="Caminho_31155" data-name="Caminho 31155" d="M-736.168-82.971v25.6h5.929l7.546-8.085L-723.7-57.37H-697.5l-1.617-8.085,3.234,8.085h4.177v-25.6Z" transform="translate(-203.332 -36.475)" fill="#2f2e41"/>
    <ellipse id="Elipse_76" data-name="Elipse 76" cx="2.021" cy="3.705" rx="2.021" ry="3.705" transform="translate(-945.564 -96.539)" fill="#ffb8b8"/>
    <ellipse id="Elipse_77" data-name="Elipse 77" cx="2.021" cy="3.705" rx="2.021" ry="3.705" transform="translate(-893.688 -96.539)" fill="#ffb8b8"/>
    <path id="Caminho_31156" data-name="Caminho 31156" d="M-754.087,456.84V459.1a4.961,4.961,0,0,1-.338,1.811,5.1,5.1,0,0,1-.361.744,5,5,0,0,1-4.294,2.439H-925.1a5,5,0,0,1-4.294-2.439,5.066,5.066,0,0,1-.361-.744,4.954,4.954,0,0,1-.338-1.811V456.84a4.992,4.992,0,0,1,4.991-4.993h9.573v-1.052a.208.208,0,0,1,.207-.208h4.994a.208.208,0,0,1,.208.207v1.053h3.119v-1.052a.208.208,0,0,1,.207-.208h4.994a.208.208,0,0,1,.208.207v1.053h3.123v-1.052a.208.208,0,0,1,.207-.208h4.994a.208.208,0,0,1,.208.207v1.053h3.119v-1.052a.208.208,0,0,1,.207-.208h4.994a.208.208,0,0,1,.208.207v1.053h3.119v-1.052a.208.208,0,0,1,.208-.208h4.994a.208.208,0,0,1,.208.207v1.053h3.123v-1.052a.208.208,0,0,1,.207-.208h4.994a.208.208,0,0,1,.208.207v1.053h3.119v-1.052a.208.208,0,0,1,.208-.208h39.114a.208.208,0,0,1,.208.207h0v1.053h3.123v-1.052a.208.208,0,0,1,.207-.208h4.994a.21.21,0,0,1,.208.208v1.052h3.119v-1.052a.208.208,0,0,1,.207-.208h4.994a.208.208,0,0,1,.208.207h0v1.053h3.119v-1.052a.208.208,0,0,1,.208-.208h4.994a.208.208,0,0,1,.208.207h0v1.053h3.123v-1.052a.208.208,0,0,1,.207-.208h4.994a.207.207,0,0,1,.2.208v1.052h3.123v-1.052a.208.208,0,0,1,.208-.208h4.994a.208.208,0,0,1,.208.207h0v1.053h3.119v-1.052a.208.208,0,0,1,.207-.208h4.994a.208.208,0,0,1,.208.207h0v1.053h14.563a4.992,4.992,0,0,1,4.993,4.991Z" transform="translate(-81.505 -371.658)" fill="#3f3d56"/>
    <rect id="Retângulo_6570" data-name="Retângulo 6570" width="361.032" height="0.744" transform="translate(-1059.84 91.85)" fill="#3f3d56"/>
    <path id="Caminho_31157" data-name="Caminho 31157" d="M-756.682,211.772h-152.08a4.186,4.186,0,0,0-4.186,4.186h0v84.736a4.186,4.186,0,0,0,4.186,4.186h152.08a4.186,4.186,0,0,0,4.186-4.186V215.958a4.186,4.186,0,0,0-4.186-4.186Z" transform="translate(-92.278 -221.634)" fill="#3f3d56"/>
    <circle id="Elipse_78" data-name="Elipse 78" cx="9.295" cy="9.295" r="9.295" transform="translate(-934.173 10.427)" fill="#f19a16"/>
    <path id="Caminho_31158" data-name="Caminho 31158" d="M-542.97,45.013l46.923-47.293h22.153v-.744h-22.463l-.109.11L-543.5,44.49Z" transform="translate(-324.368 -86.698)" fill="#3f3d56"/>
    <rect id="Retângulo_6571" data-name="Retângulo 6571" width="54.365" height="4.844" transform="translate(-771.206 -108.395)" fill="#f19a16"/>
    <path id="Caminho_31159" data-name="Caminho 31159" d="M-320.779-51.426h-11.509V-62.935h11.509Zm-10.765-.744h10.022V-62.191h-10.022Z" transform="translate(-457.052 -49.062)" fill="#3f3d56"/>
    <rect id="Retângulo_6572" data-name="Retângulo 6572" width="54.365" height="4.844" transform="translate(-771.206 -92.247)" fill="#f19a16"/>
    <path id="Caminho_31160" data-name="Caminho 31160" d="M-320.779-7.992h-11.509V-19.5h11.509Zm-10.765-.744h10.022V-18.757h-10.022Z" transform="translate(-457.052 -76.347)" fill="#3f3d56"/>
    <rect id="Retângulo_6573" data-name="Retângulo 6573" width="54.365" height="4.844" transform="translate(-771.206 -76.099)" fill="#f19a16"/>
    <path id="Caminho_31161" data-name="Caminho 31161" d="M-320.779,35.44h-11.509V23.931h11.509Zm-10.765-.744h10.022V24.675h-10.022Z" transform="translate(-457.052 -103.631)" fill="#3f3d56"/>
  </g>
</svg>
