<svg xmlns="http://www.w3.org/2000/svg" width="111" height="111" viewBox="0 0 111 111">
    <path fill="#eeae45" d="M60.3 5a55.5 55.5 0 1 0 55.5 55.5A55.5 55.5 0 0 0 60.3 5zm0 106.067A50.567 50.567 0 1 1 110.867 60.5 50.636 50.636 0 0 1 60.3 111.067zm0-38.85a2.474 2.474 0 0 0 2.467-2.467V38.67a2.467 2.467 0 0 0-4.933 0v31.2a2.452 2.452 0 0 0 2.466 2.347zm-.37 9.867c-.123 0-.37.123-.493.123s-.247.123-.37.247-.247.123-.37.37a2.384 2.384 0 0 0 0 3.453c.123.123.247.247.37.247.123.123.247.123.37.247a.742.742 0 0 0 .493.123h.493A2.442 2.442 0 0 0 62.15 82.7a2.939 2.939 0 0 0-2.22-.617z" transform="translate(-4.8 -5)"/>
</svg>
