<svg id="brand-indt" xmlns="http://www.w3.org/2000/svg" width="47.549" height="14.503" viewBox="0 0 47.549 14.503">
  <path id="Path_273" data-name="Path 273" d="M281.9,31.9h2.339v8.038H281.9Z" transform="translate(-261.697 -28.668)" fill="#7c7c7c"/>
  <path id="Path_274" data-name="Path 274" d="M291.2,31.9h2.339l2.212,3.147c.553.808.893,1.446.936,1.489h.043c0-.043-.043-.766-.043-1.4V31.9h2.084v8.038h-2.127l-2.467-3.488a11.137,11.137,0,0,1-.893-1.361h-.043c0,.085.043.6.043,1.233V39.9H291.2Z" transform="translate(-267.043 -28.668)" fill="#7c7c7c"/>
  <path id="Path_275" data-name="Path 275" d="M312.7,31.9h2.892c3.147,0,4.636,1.574,4.636,3.913s-1.531,4.125-4.721,4.125H312.7V31.9Zm2.977,6.252c1.4,0,2.084-.766,2.084-2.254s-.68-2.169-2.126-2.169h-.6v4.381h.638Z" transform="translate(-279.398 -28.668)" fill="#7c7c7c"/>
  <path id="Path_276" data-name="Path 276" d="M332.769,33.771H330.6V31.9h6.635v1.871h-2.169v6.167h-2.3Z" transform="translate(-289.686 -28.668)" fill="#7c7c7c"/>
  <g id="Group_767" data-name="Group 767">
    <path id="Path_277" data-name="Path 277" d="M250.377,24.3a10.289,10.289,0,0,0-3.36,1.233l1.616.893h0a5.192,5.192,0,0,1,1.744-.553c1.4,0,2.637.085,2.637,5.657s-1.233,5.7-2.637,5.7-7.315-3.53-7.315-3.53a2.674,2.674,0,0,1-1.446-2.169,2.657,2.657,0,0,1,1.446-2.127s.978-.6,2.212-1.276l-1.531-.851c-.766.468-1.318.766-1.318.766S240,29.361,240,31.488s2.424,3.53,2.424,3.53,6.167,3.743,7.953,3.743,4.211-.043,4.211-7.273C254.588,24.343,252.164,24.3,250.377,24.3Z" transform="translate(-237.618 -24.3)" fill="#7c7c7c" fill-rule="evenodd"/>
    <path id="Path_278" data-name="Path 278" d="M238.653,38.86a10.289,10.289,0,0,0,3.36-1.233l-1.616-.893h0a5.192,5.192,0,0,1-1.744.553c-1.4,0-2.637-.085-2.637-5.657s1.233-5.7,2.637-5.7,7.315,3.53,7.315,3.53a2.674,2.674,0,0,1,1.446,2.169,2.657,2.657,0,0,1-1.446,2.127s-.978.6-2.254,1.276l1.531.851c.766-.468,1.318-.766,1.318-.766s2.424-1.318,2.424-3.445-2.424-3.53-2.424-3.53S240.4,24.4,238.611,24.4s-4.211.043-4.211,7.273C234.443,38.86,236.867,38.86,238.653,38.86Z" transform="translate(-234.4 -24.357)" fill="#7c7c7c" fill-rule="evenodd"/>
  </g>
</svg>
