<svg id="usuário-menor" xmlns="http://www.w3.org/2000/svg" width="80" height="80" viewBox="0 0 80 80">
  <rect id="Boundary" width="80" height="80" fill="none"/>
  <g id="noun-user-locked-1939850" transform="translate(10.898 8.487)">
    <path id="Caminho_30932" data-name="Caminho 30932" d="M191.314,137.627a16.314,16.314,0,1,1,16.314-16.314A16.336,16.336,0,0,1,191.314,137.627Z" transform="translate(-161.949 -105)" fill="#fff"/>
    <path id="Caminho_30933" data-name="Caminho 30933" d="M160.467,341.475h-52.2A3.264,3.264,0,0,1,105,338.212v-6.9a3.256,3.256,0,0,1,.653-1.958,35.89,35.89,0,0,1,57.424,0,3.284,3.284,0,0,1,.653,1.958v6.9A3.264,3.264,0,0,1,160.467,341.475Z" transform="translate(-105 -278.644)" fill="#fff"/>
  </g>
</svg>
