<?xml version="1.0" encoding="utf-8"?>
<!-- Generator: Adobe Illustrator 26.2.1, SVG Export Plug-In . SVG Version: 6.00 Build 0)  -->
<svg version="1.1" id="Layer_1" xmlns="http://www.w3.org/2000/svg" xmlns:xlink="http://www.w3.org/1999/xlink" x="0px" y="0px"
	 viewBox="0 0 1271 162" style="enable-background:new 0 0 1271 162;" xml:space="preserve">
<style type="text/css">
	.st0{fill:#003274;}
	.st1{clip-path:url(#SVGID_00000077287183954995165760000016207164261149617799_);}
	.st2{fill:#04BBFF;}
	.st3{fill:url(#SVGID_00000047748077878558399120000012899222203117701295_);}
	.st4{fill:url(#SVGID_00000042731673075798169340000001983114639907685004_);}
</style>
<g>
	<g>
		<g>
			<path class="st0" d="M356.84,140.94c-35.58,0-61.88-28.05-61.88-65.03c0-37.51,26.29-62.4,61.88-62.4h69.07v22.26h-69.07
				c-22.79,0-39.62,17-39.62,41.19c0,24.02,16.65,41.72,39.62,41.72h54.52V85.55h-57.5V66.79h79.93v74.15H356.84z"/>
			<path class="st0" d="M569.83,13.5h21.74v71.17c0,39.44-19.46,58.02-68.89,58.02c-49.08,0-68.71-18.58-68.71-58.02V13.5h22.96
				v71.17c0,25.59,11.39,36.11,46.45,36.11s46.45-10.52,46.45-36.11V13.5z"/>
			<path class="st0" d="M614.53,140.94V13.5h22.26v127.44H614.53z"/>
			<path class="st0" d="M661.68,140.94V13.5h73.8c35.93,0,62.05,25.42,62.05,62.4c0,36.99-26.12,65.03-62.05,65.03H661.68z
				 M735.48,118.68c22.96,0,39.79-17.71,39.79-41.72c0-24.01-16.83-41.19-39.79-41.19h-51.71v82.91H735.48z"/>
			<path class="st0" d="M817.35,140.94V13.5h113.77v22.26h-91.68v82.91h91.85v22.26H817.35z M855.74,85.55V66.79h70.64v18.76H855.74
				z"/>
		</g>
		<g>
			<defs>
				<rect id="SVGID_1_" x="6.88" y="2.62" width="253.5" height="160.5"/>
			</defs>
			<clipPath id="SVGID_00000066499152458394436190000008004738432544789687_">
				<use xlink:href="#SVGID_1_"  style="overflow:visible;"/>
			</clipPath>
			<g style="clip-path:url(#SVGID_00000066499152458394436190000008004738432544789687_);">
				<defs>
					<rect id="SVGID_00000014600943871602932050000008675561492300377495_" x="6.88" y="2.62" width="1755" height="633"/>
				</defs>
				<clipPath id="SVGID_00000134216847996231653900000000995973013220603318_">
					<use xlink:href="#SVGID_00000014600943871602932050000008675561492300377495_"  style="overflow:visible;"/>
				</clipPath>
			</g>
		</g>
		<g>
			<path class="st2" d="M1111.49,140.94l-24.37-89.57l-36.11,82.91c-2.45,5.43-5.96,8.41-11.39,8.41c-5.26,0-9.12-2.98-11.39-8.41
				l-35.94-82.91l-24.37,89.57h-21.91l32.78-119.9c1.58-6.13,5.08-9.12,11.04-9.12c4.73,0,9.12,2.63,11.22,7.54l39.27,90.1
				l39.27-90.1c2.1-4.91,5.96-7.54,10.69-7.54c5.43,0,8.94,2.98,10.69,9.12l32.6,119.9H1111.49z"/>
			<path class="st2" d="M1149.88,140.94V13.5h113.76v22.26h-91.68v82.91h91.85v22.26H1149.88z M1188.27,85.55V66.79h70.64v18.76
				H1188.27z"/>
		</g>
	</g>
	<g>
		
			<linearGradient id="SVGID_00000026843388951859496870000003279282785214434207_" gradientUnits="userSpaceOnUse" x1="-38.8681" y1="-123.9317" x2="111.8281" y2="-123.9317" gradientTransform="matrix(-0.9998 0.0198 -0.0198 -0.9998 116.6041 -44.3597)">
			<stop  offset="0" style="stop-color:#08AEEA"/>
			<stop  offset="0.9991" style="stop-color:#2AF598"/>
		</linearGradient>
		<path style="fill:url(#SVGID_00000026843388951859496870000003279282785214434207_);" d="M71.73,151.79
			c-7.98,3.62-16,6.57-25.08,6.27c-17.66-0.59-26.28-9.49-31.86-24.75c-4.87-13.34-6.09-27.36-7.06-41.43
			C6.65,76.36,7.18,60.89,9.27,45.52c1.33-9.79,3.72-19.35,9.13-27.8C24.17,8.71,32.56,5,42.71,4.03
			c10.74-1.02,20.37,2.46,29.94,6.66c21.63,9.5,42.43,20.68,62.51,33.23c8.22,5.14,14.84,12.24,19.22,21.27
			c5.74,11.83,4.28,23.06-2.64,33.82c-5.86,9.11-14.19,15.33-23.18,20.74C125.76,121.44,74.59,151.7,71.73,151.79
			c-2.76,0.09-1.62-6.83-4.43-8.34c-2.3-1.23,2.66-5.64-0.06-7.1c5.28-3.27,47.32-26.29,52.13-29.39c4.45-2.87,9.07-5.55,13.12-8.94
			c8.16-6.86,11.02-16.46,8.03-25.42c-2.09-6.25-6.13-11.11-11.6-14.34c-22.41-13.25-45-26.14-69.25-35.62
			c-4.54-1.77-9.2-2.65-14.11-2.27c-9.19,0.72-15.17,5.77-17.41,14.67c-1.91,7.61-3.31,15.48-3.82,23.31
			c-0.68,10.4-0.6,20.88-0.26,31.31c0.41,12.48,1.2,24.98,5.35,36.91c4.43,12.72,12.16,16.63,26.06,14.11
			c4.29-0.78,8.31-3.1,12.49-4.61c0.94-0.34,2.23-0.67,3.01-0.27"/>
		
			<linearGradient id="SVGID_00000034068296404083153650000011154194634538570902_" gradientUnits="userSpaceOnUse" x1="-128.0121" y1="-125.694" x2="22.6842" y2="-125.694" gradientTransform="matrix(-0.9998 0.0198 -0.0198 -0.9998 116.6041 -44.3597)">
			<stop  offset="0" style="stop-color:#08AEEA"/>
			<stop  offset="0.9991" style="stop-color:#2AF598"/>
		</linearGradient>
		<path style="fill:url(#SVGID_00000034068296404083153650000011154194634538570902_);" d="M160.89,151.79
			c-7.98,3.62-16,6.57-25.08,6.27c-17.66-0.59-26.28-9.49-31.86-24.75c-4.87-13.34-6.09-27.36-7.06-41.43
			c-1.08-15.52-0.54-30.99,1.55-46.35c1.33-9.79,3.72-19.35,9.13-27.8c5.76-9.01,14.15-12.72,24.3-13.69
			c10.74-1.02,20.37,2.46,29.94,6.66c21.63,9.5,42.43,20.68,62.51,33.23c8.22,5.14,14.84,12.24,19.22,21.27
			c5.74,11.83,4.28,23.06-2.64,33.82c-5.86,9.11-14.19,15.33-23.18,20.74C214.92,121.44,163.75,151.7,160.89,151.79
			c-2.76,0.09-1.62-6.83-4.43-8.34c-2.3-1.23,2.66-5.64-0.06-7.1c5.28-3.27,47.32-26.29,52.13-29.39c4.45-2.87,9.07-5.55,13.12-8.94
			c8.16-6.86,11.02-16.46,8.03-25.42c-2.09-6.25-6.13-11.11-11.6-14.34c-22.41-13.25-45-26.14-69.25-35.62
			c-4.54-1.77-9.2-2.65-14.11-2.27c-9.19,0.72-15.17,5.77-17.41,14.67c-1.91,7.61-3.31,15.48-3.82,23.31
			c-0.68,10.4-0.6,20.88-0.26,31.31c0.41,12.48,1.2,24.98,5.35,36.91c4.43,12.72,12.16,16.63,26.06,14.11
			c4.29-0.78,8.31-3.1,12.49-4.61c0.94-0.34,2.23-0.67,3.01-0.27"/>
	</g>
</g>
</svg>
