<svg id="Grupo_79" data-name="Grupo 79" xmlns="http://www.w3.org/2000/svg" width="156.888" height="185.183" viewBox="0 0 156.888 185.183">
  <path id="Caminho_123" data-name="Caminho 123" d="M533.89,309.536c0,.023,0,.046,0,.073,6.454,1.33,13.892,8.68,17.433,19.1v-.059c2.711,5.024,9.685,3.283,9.685,3.283a22.053,22.053,0,0,1-6.2-9.47s2.408,5.413,11.837,5.413c-2.833-3.478-6.39-6.51-8.524-13.267a51.338,51.338,0,0,1-1.853-13.871c-4.9,5.979-14.077,10.577-22.38,8.8" transform="translate(-479.912 -181.207)" fill="#eee800"/>
  <path id="Caminho_124" data-name="Caminho 124" d="M551.214,275.459c9.343-.577,21.017-7.979,30.152-17.261-9-3.1-19.391-4.218-29.455.586-8.524,4.075-13.878,11.686-17.182,18.8a80.023,80.023,0,0,0-.842,8.205c8.3,1.783,17.483-2.82,22.381-8.8a3.355,3.355,0,0,1,.048-.432,19.382,19.382,0,0,1-8-1.154c.661.014,1.654.064,2.9.052" transform="translate(-479.912 -157.461)" fill="#40a731"/>
  <path id="Caminho_125" data-name="Caminho 125" d="M533.735,319.411c-.02.387-.048.77-.059,1.163-.043,1.1-.077,2.22-.077,3.367,0,.195.018.383.018.579v.172a61.66,61.66,0,0,0,.442,6.581c.249,2.132.6,4.206,1.027,6.193a64.978,64.978,0,0,0,6.173,17.119,27.256,27.256,0,0,1,1.785-8.207c-.8-1.256-1.609-6.7-1.812-9-.007-.109-.018-.213-.025-.308-.127-1.428-.2-2.387.1-1.317a18.289,18.289,0,0,0,.645,1.916c3.356,8.393,11.932,11.421,11.932,11.421a17.663,17.663,0,0,1-1.921-4.808,26.826,26.826,0,0,1-.79-5.762c-3.541-10.427-10.979-17.772-17.435-19.108" transform="translate(-479.76 -191.012)" fill="#ef7a00"/>
  <path id="Caminho_126" data-name="Caminho 126" d="M635.877,423.728a11.893,11.893,0,0,1,.647-1.068,3,3,0,0,1,.924-.776,5.117,5.117,0,0,0-1.613-.256,3.461,3.461,0,0,0-1.389.428,8.562,8.562,0,0,0-1.311-1.2,11.278,11.278,0,0,0-2.67-1.086,16.476,16.476,0,0,1,1.543,1.894,6.288,6.288,0,0,1,.695,1.586,3.609,3.609,0,0,1-1.2,1.156,9.092,9.092,0,0,1-1.677.776,15.97,15.97,0,0,0,2.206.647,7.95,7.95,0,0,0,1.661-.122,12.571,12.571,0,0,0,.754,1.69,5.062,5.062,0,0,0,1.459,1.5s-.058-.9-.027-1.394a6.353,6.353,0,0,1,.177-1.145,3.989,3.989,0,0,0,1.783.258,4.662,4.662,0,0,0,2.188-.964s-1.53-.471-2.116-.715a6.976,6.976,0,0,1-2.032-1.21" transform="translate(-530.295 -243.716)" fill="#ef7a00"/>
  <path id="Caminho_127" data-name="Caminho 127" d="M608.937,411.408a16.794,16.794,0,0,1,3.023,1.541,12.965,12.965,0,0,0-1.912-3.159,6.831,6.831,0,0,0-2.491-1.749,3.844,3.844,0,0,0,.713-2.209,29.453,29.453,0,0,0-.07-3.854,13.421,13.421,0,0,1-1.6,2.123,6.607,6.607,0,0,1-1.254.923,12.09,12.09,0,0,0-2.129-2.181,4.532,4.532,0,0,0-3.193-.767A6.958,6.958,0,0,1,601.9,404.7a9.326,9.326,0,0,1,.559,2.2,20.512,20.512,0,0,0-2.05,3.329,6.21,6.21,0,0,0-.5,3.166c-.1-1.084,2.616-2.009,3.451-1.978a11.6,11.6,0,0,0,2.231,3.926,6.187,6.187,0,0,0,5.291,1.982,16.837,16.837,0,0,1-3.044-3.163c-1.247-2.234-1.073-3.152-1.073-3.152a10.638,10.638,0,0,1,2.177.4" transform="translate(-514.564 -234.374)" fill="#ef7a00"/>
  <path id="Caminho_128" data-name="Caminho 128" d="M566.532,394.382a19.113,19.113,0,0,0,2.389-5.972c-2.222,2.189-6.476,2.039-6.476,2.039a20.11,20.11,0,0,1-3.24-2.571c-1.141-1.111-2.546-2.83-2.546-2.83a20.846,20.846,0,0,0,0,4.046,35.631,35.631,0,0,0,.726,3.573,3.518,3.518,0,0,1-1.453.686,8.772,8.772,0,0,1-2.491.195,6.924,6.924,0,0,0,2.731,2.564,6,6,0,0,0,2.035.292,6.822,6.822,0,0,0,.735,3.555,5.586,5.586,0,0,0,4.159,2.7c-1.367-.115-1.7-3.528-1.272-4.363-.387.756,3.9,1.047,4.173,1.057a12.067,12.067,0,0,0,6.931-1.912,18.008,18.008,0,0,1-4.413-1.226,13.085,13.085,0,0,1-1.993-1.826" transform="translate(-490.184 -225.483)" fill="#ef7a00"/>
  <path id="Caminho_129" data-name="Caminho 129" d="M589.607,381.687s3.25-.072,4.788-1.088a4.9,4.9,0,0,0,2.066-2.29,14.676,14.676,0,0,1,3.322,2.1,20.193,20.193,0,0,1,3.05,3.756,15.717,15.717,0,0,0-1.561-5.962,15.938,15.938,0,0,0-2.657-3.623,3.982,3.982,0,0,1,1.426-.582,4.916,4.916,0,0,1,2.129.061,6.329,6.329,0,0,0-3.046-1.942,11.382,11.382,0,0,0-2.611-.292,16.637,16.637,0,0,0-2.849-2.507c-.373-.3-4.383-2.2-4.383-2.252-.032.543,1.548,5.015,1.2,5.1a16.836,16.836,0,0,1-6.816.195,11.816,11.816,0,0,0,4.075,2.953,9.262,9.262,0,0,0,3.177,1.061,7.84,7.84,0,0,1-.246,2.863,17.354,17.354,0,0,1-1.066,2.455" transform="translate(-506.055 -216.037)" fill="#ef7a00"/>
  <path id="Caminho_130" data-name="Caminho 130" d="M491.22,129.358a120.8,120.8,0,0,0-12.871.566c4.643,2.4,17.155,8.6,26.507,3.989-1.925,2.541-6.849,4.84-15.24,1.853a.013.013,0,0,1-.009,0c-.242.278-2.265,2.808-2.4,3a16.307,16.307,0,0,0,16.218,1.518c8.438-3.754,12.475-13.486,9.049-21.737a16.527,16.527,0,0,0-.915-1.826,14.351,14.351,0,0,0-1.127-1.683c.321-.073.647-.143.973-.206a20.952,20.952,0,0,1,13.446,2.014,21.408,21.408,0,0,1,16.45-16.159,26.486,26.486,0,0,0-7.4-.045,48.326,48.326,0,0,0-25.805,11.674,35.774,35.774,0,0,1,5.273-5.92c-15.428-20.269-24.138-44.666-27.211-55.062-.912-3.078-2.24-3.125-2.718,0-.466,3.086-1,7.352-1.308,12.3a77.5,77.5,0,0,0,4.829,9.475c-2.053-2.616-3.675-4.684-4.976-6.34-.124,3.243-.131,6.711.056,10.291a101.9,101.9,0,0,0,8.7,13.237s-3.863-3.887-8.328-8.162a77.237,77.237,0,0,0,2.971,14.994c1.249,1.011,6.789,4.209,6.789,4.209C461.2,89.154,436.4,74.592,423.889,66c-3.557-2.446-4.594-.96-2.84,1.991.9,1.525,2.02,3.369,3.34,5.462,10.931,14.987,21.062,18.272,21.062,18.272s-5.015-1.564-11.025-3.509c14.561,18.625,33.133,23.558,33.133,23.558s-8.855-1.81-15.695-2.629c19.549,18.168,35.538,20.014,39.355,20.216" transform="translate(-420.214 -49)" fill="#c70026"/>
  <path id="Caminho_131" data-name="Caminho 131" d="M640.128,174c-.177.783-.3,1.579-.405,2.378a22.813,22.813,0,0,0,3.127-.346c.143-.029.292-.057.439-.09a22.359,22.359,0,0,0,17.39-17.058,18.4,18.4,0,0,0-4.1-1.045A21.407,21.407,0,0,0,640.128,174" transform="translate(-535.494 -106.158)" fill="#8f1d22"/>
  <path id="Caminho_132" data-name="Caminho 132" d="M695.811,206.477c-1.041-1.425-9.13-12.518-12.479-16.7s-4.628-6.37-5.829-12.409-4.062-11.387-8.85-15.025a17.775,17.775,0,0,0-4.03-2.306,22.348,22.348,0,0,1-17.394,17.057,25.1,25.1,0,0,1,7.531,8.968c7.286-3.586,14.446-4.286,21.8.862s16.123,19.259,17.544,21.148c1.38,1.833,3.089.3,1.706-1.593m-27-32.741c-.81.708-2.351.273-3.442-.978s-1.319-2.824-.507-3.532,2.349-.267,3.444.982,1.32,2.824.5,3.528" transform="translate(-539.435 -107.312)" fill="#9e4394"/>
  <path id="Caminho_133" data-name="Caminho 133" d="M653.122,235.645c-.615.939-.928,1.437-1.05,1.632.36-.543.713-1.093,1.05-1.632" transform="translate(-541.979 -147.021)" fill="#00a7ea"/>
  <path id="Caminho_134" data-name="Caminho 134" d="M588.553,205.873a40.941,40.941,0,0,0-3.723,2.489,19.435,19.435,0,0,1,3.349-3.116,36.132,36.132,0,0,1-2.206-4.678,21.338,21.338,0,0,1-.9-8.931,23.7,23.7,0,0,1,.4-2.381,20.929,20.929,0,0,0-13.448-2.016c-.323.063-.652.131-.969.208a13.988,13.988,0,0,1,1.122,1.684,15.293,15.293,0,0,1,.916,1.826c3.426,8.248-.611,17.978-9.049,21.734a16.311,16.311,0,0,1-16.22-1.516,68.8,68.8,0,0,0-12.167,30.362c3.3-7.112,8.653-14.724,17.179-18.8,10.068-4.806,20.461-3.682,29.455-.586a73.768,73.768,0,0,0,8.633-10.474c.249-.389,1.118-1.738,1.127-1.749a21.885,21.885,0,0,1-3.507-4.057" transform="translate(-480.846 -121.417)" fill="#00a7ea"/>
  <path id="Caminho_135" data-name="Caminho 135" d="M654.353,235.413c-.02.036-.043.07-.07.111a1.068,1.068,0,0,0,.07-.111" transform="translate(-543.14 -146.899)" fill="#00a7ea"/>
  <path id="Caminho_136" data-name="Caminho 136" d="M651.989,239.079a.007.007,0,0,0-.007.007c-.086.117-.1.147.007-.007" transform="translate(-541.895 -148.824)" fill="#00a7ea"/>
  <path id="Caminho_137" data-name="Caminho 137" d="M653.188,235.413c-.009.011-.876,1.36-1.124,1.747a.007.007,0,0,1,.007-.007c.12-.194.434-.69,1.047-1.629.027-.041.05-.075.07-.111" transform="translate(-541.974 -146.899)" fill="#00a7ea"/>
  <path id="Caminho_138" data-name="Caminho 138" d="M650.552,226.658h0a46.985,46.985,0,0,0,3.928-7.915,64.576,64.576,0,0,0-7.436,3.858,22.2,22.2,0,0,0,3.508,4.057" transform="translate(-539.339 -138.144)" fill="#4659a7"/>
  <path id="Caminho_139" data-name="Caminho 139" d="M650.552,230.925h0a22.2,22.2,0,0,1-3.508-4.057,22.2,22.2,0,0,0,3.508,4.057" transform="translate(-539.339 -142.411)" fill="#4659a7"/>
  <path id="Caminho_140" data-name="Caminho 140" d="M643.143,195.958c-.142.036-.292.063-.439.09a23.134,23.134,0,0,1-3.125.351,21.394,21.394,0,0,0,.9,8.932,36.47,36.47,0,0,0,2.207,4.677,55.984,55.984,0,0,1,7.988-5.082,25.105,25.105,0,0,0-7.528-8.968" transform="translate(-535.35 -126.178)" fill="#4659a7"/>
</svg>
