<svg xmlns="http://www.w3.org/2000/svg" xmlns:xlink="http://www.w3.org/1999/xlink" width="26.002" height="33.248" viewBox="0 0 26.002 33.248">
  <defs>
    <clipPath id="clip-path">
      <rect id="Retângulo_6362" data-name="Retângulo 6362" width="26.002" height="33.248" fill="none"/>
    </clipPath>
    <clipPath id="clip-path-3">
      <rect id="Retângulo_6358" data-name="Retângulo 6358" width="25.427" height="32.656" fill="none"/>
    </clipPath>
    <clipPath id="clip-path-4">
      <rect id="Retângulo_6359" data-name="Retângulo 6359" width="6.355" height="6.738" fill="none"/>
    </clipPath>
    <clipPath id="clip-path-5">
      <rect id="Retângulo_6360" data-name="Retângulo 6360" width="16.897" height="8.024" fill="none"/>
    </clipPath>
  </defs>
  <g id="Grupo_10613" data-name="Grupo 10613" transform="translate(-7 -6)">
    <g id="Grupo_10612" data-name="Grupo 10612" transform="translate(7 6)" clip-path="url(#clip-path)">
      <g id="Grupo_10611" data-name="Grupo 10611">
        <g id="Grupo_10610" data-name="Grupo 10610" clip-path="url(#clip-path)">
          <g id="Grupo_10603" data-name="Grupo 10603" transform="translate(0.575 0.592)" opacity="0.19">
            <g id="Grupo_10602" data-name="Grupo 10602">
              <g id="Grupo_10601" data-name="Grupo 10601" clip-path="url(#clip-path-3)">
                <path id="Caminho_30903" data-name="Caminho 30903" d="M41.879,23.793v.113l-.434-.43h-15.3a1.238,1.238,0,0,0-1.238,1.238v4.329h-.525a1.576,1.576,0,0,0-1.576,1.576v6.449h0l.474.376h0l1.626,1.292V54.895a1.238,1.238,0,0,0,1.238,1.238H47a1.238,1.238,0,0,0,1.238-1.238V30.214Z" transform="translate(-22.807 -23.476)" fill="#804000"/>
              </g>
            </g>
          </g>
          <path id="Caminho_30904" data-name="Caminho 30904" d="M99.873,0h-15.3a1.238,1.238,0,0,0-1.238,1.238V31.419a1.238,1.238,0,0,0,1.238,1.238h20.851a1.238,1.238,0,0,0,1.238-1.238V6.738Z" transform="translate(-81.235)" fill="#fff"/>
          <g id="Grupo_10606" data-name="Grupo 10606" transform="translate(19.072 0.317)" opacity="0.17" style="mix-blend-mode: multiply;isolation: isolate">
            <g id="Grupo_10605" data-name="Grupo 10605">
              <g id="Grupo_10604" data-name="Grupo 10604" clip-path="url(#clip-path-4)">
                <path id="Caminho_30905" data-name="Caminho 30905" d="M756.519,17.937a1.388,1.388,0,0,0,1.388,1.388h4.967v-.317l-6.355-6.421Z" transform="translate(-756.519 -12.588)" fill="#333"/>
              </g>
            </g>
          </g>
          <path id="Caminho_30906" data-name="Caminho 30906" d="M739.313,5.349A1.388,1.388,0,0,0,740.7,6.738h5.4L739.313,0Z" transform="translate(-720.675)" fill="#f2f2f2"/>
          <path id="Caminho_30907" data-name="Caminho 30907" d="M217.9,649.277H201.067a.284.284,0,0,1-.284-.284v-1.012a.284.284,0,0,1,.284-.284H217.9a.284.284,0,0,1,.284.284v1.012a.284.284,0,0,1-.284.284" transform="translate(-195.721 -631.369)" fill="#e5e5e5"/>
          <path id="Caminho_30908" data-name="Caminho 30908" d="M217.9,765.888H201.067a.284.284,0,0,1-.284-.284v-1.012a.284.284,0,0,1,.284-.284H217.9a.284.284,0,0,1,.284.284V765.6a.284.284,0,0,1-.284.284" transform="translate(-195.721 -745.039)" fill="#e5e5e5"/>
          <path id="Caminho_30909" data-name="Caminho 30909" d="M217.9,882.5H201.067a.284.284,0,0,1-.284-.284V881.2a.284.284,0,0,1,.284-.284H217.9a.284.284,0,0,1,.284.284v1.012a.284.284,0,0,1-.284.284" transform="translate(-195.721 -858.708)" fill="#e5e5e5"/>
          <path id="Caminho_30910" data-name="Caminho 30910" d="M217.9,999.107H201.067a.284.284,0,0,1-.284-.284V997.81a.284.284,0,0,1,.284-.284H217.9a.284.284,0,0,1,.284.284v1.012a.284.284,0,0,1-.284.284" transform="translate(-195.721 -972.379)" fill="#e5e5e5"/>
          <path id="Caminho_30911" data-name="Caminho 30911" d="M217.9,1115.716H201.067a.284.284,0,0,1-.284-.285v-1.012a.284.284,0,0,1,.284-.284H217.9a.284.284,0,0,1,.284.284v1.012a.285.285,0,0,1-.284.285" transform="translate(-195.721 -1086.048)" fill="#e5e5e5"/>
          <g id="Grupo_10609" data-name="Grupo 10609" transform="translate(0 5.944)" opacity="0.14" style="mix-blend-mode: multiply;isolation: isolate">
            <g id="Grupo_10608" data-name="Grupo 10608">
              <g id="Grupo_10607" data-name="Grupo 10607" clip-path="url(#clip-path-5)">
                <path id="Caminho_30912" data-name="Caminho 30912" d="M15.51,235.788H1.576A1.576,1.576,0,0,0,0,237.364v6.072H2.1v.376H15.51a1.387,1.387,0,0,0,1.387-1.387v-5.251a1.387,1.387,0,0,0-1.387-1.387" transform="translate(0 -235.788)" fill="#333"/>
                <path id="Caminho_30913" data-name="Caminho 30913" d="M0,539.162l.474.377H2.1v-.377Z" transform="translate(0 -531.514)" fill="#333"/>
              </g>
            </g>
          </g>
          <path id="Caminho_30914" data-name="Caminho 30914" d="M15.51,220.813H1.576A1.576,1.576,0,0,0,0,222.389v6.449H15.51a1.387,1.387,0,0,0,1.387-1.387V222.2a1.387,1.387,0,0,0-1.387-1.387" transform="translate(0 -215.246)" fill="#f93232"/>
          <path id="Caminho_30915" data-name="Caminho 30915" d="M109.5,303.681a1.429,1.429,0,0,1-1.542,1.406h-.542v1.146h-1.084V302.28h1.627a1.425,1.425,0,0,1,1.542,1.4m-.977,0c0-.249-.141-.486-.6-.486h-.5v.977h.5c.463,0,.6-.243.6-.491" transform="translate(-103.647 -294.66)" fill="#fff"/>
          <path id="Caminho_30916" data-name="Caminho 30916" d="M264.895,304.258a1.962,1.962,0,0,1-2.2,1.977h-1.559v-3.953H262.7a1.959,1.959,0,0,1,2.2,1.977m-1.005,0c0-.587-.362-1.062-1.265-1.062h-.407v2.123h.407c.9,0,1.265-.48,1.265-1.062" transform="translate(-254.556 -294.661)" fill="#fff"/>
          <path id="Caminho_30917" data-name="Caminho 30917" d="M440.333,303.2v.6h1.6v.915h-1.6v1.519h-1.084v-3.953h2.858v.915Z" transform="translate(-428.176 -294.66)" fill="#fff"/>
        </g>
      </g>
    </g>
  </g>
</svg>
